<svg width="152" height="81" viewBox="0 0 152 81" fill="none" xmlns="http://www.w3.org/2000/svg">
<path d="M37.6181 1.03658C45.6695 1.34354 52.0976 4.78669 56.1608 8.09496C57.8429 9.46457 56.6533 11.7307 54.496 11.5039C54.0996 11.4622 53.7184 11.3246 53.3813 11.112C46.416 6.71896 40.0011 5.91727 37.6181 6.07595C24.5984 5.29567 14.8335 13.2286 11.5786 17.2926C6.11031 23.1448 4.63473 33.2777 4.58048 37.6127C6.14284 55.9495 20.6382 64.8686 27.6905 67.0361C16.461 64.2726 1.00003 48.5265 1 33.7112C0.999986 25.7049 3.38903 20.3404 5.34198 16.7641C7.29493 13.1878 16.2982 0.223777 37.6181 1.03658Z" fill="#E7F5F9" stroke="white"/>
<path d="M12.6655 34.4833C10.5498 41.7985 13.6399 51.4845 15.9726 55.3318C4.90583 26.8837 40.7101 16.805 55.8455 17.4552C67.9539 17.9754 63.3861 24.4995 59.5887 27.6965C53.5996 34.0689 46.135 30.3517 43.1513 27.6965C47.4478 35.8896 54.5978 34.5783 57.6358 32.8985C64.5362 30.5576 68.3228 21.6276 69.3535 17.4552C59.8491 10.6927 41.8493 14.204 34.0375 16.805L38.4316 14.3666C30.3594 10.4651 22.2655 11.874 19.2275 13.0661C21.8315 14.6267 21.291 19.2026 20.3146 21.1533C16.8969 25.3799 13.5005 31.596 12.6655 34.4833Z" fill="#E7F5F9"/>
<path d="M24.4354 57.9328C21.1805 47.3989 42.2833 38.263 53.2416 35.0117C43.8023 52.5682 35.1767 51.2678 36.9669 50.455C38.3991 49.8048 39.9506 45.1989 40.5473 42.9772C32.8657 46.8787 30.7283 52.8392 30.6198 55.3318C30.2292 63.2782 39.3539 63.3029 43.965 62.3219C40.0591 62.3219 39.5709 61.184 39.7336 56.7949C39.8638 53.2835 48.7932 46.987 53.2416 44.2777C40.7426 59.3633 51.5056 55.2234 58.4495 51.2678C64.5688 48.0166 67.943 34.6325 68.8653 28.3468C73.4222 52.1456 57.2581 65.8574 43.965 66.3859C30.1641 67.1662 25.1949 61.2924 24.4354 57.9328Z" fill="#E7F5F9"/>
<path d="M12.6655 34.4833C10.5498 41.7985 13.6399 51.4845 15.9726 55.3318C4.90583 26.8837 40.7101 16.805 55.8455 17.4552C67.9539 17.9754 63.3861 24.4995 59.5887 27.6965C53.5996 34.0689 46.135 30.3517 43.1513 27.6965C47.4478 35.8896 54.5978 34.5783 57.6358 32.8985C64.5362 30.5576 68.3228 21.6276 69.3535 17.4552C59.8491 10.6927 41.8493 14.204 34.0375 16.805L38.4316 14.3666C30.3594 10.4651 22.2655 11.874 19.2275 13.0661C21.8315 14.6267 21.291 19.2026 20.3146 21.1533C16.8969 25.3799 13.5005 31.596 12.6655 34.4833Z" stroke="white"/>
<path d="M24.4354 57.9328C21.1805 47.3989 42.2833 38.263 53.2416 35.0117C43.8023 52.5682 35.1767 51.2678 36.9669 50.455C38.3991 49.8048 39.9506 45.1989 40.5473 42.9772C32.8657 46.8787 30.7283 52.8392 30.6198 55.3318C30.2292 63.2782 39.3539 63.3029 43.965 62.3219C40.0591 62.3219 39.5709 61.184 39.7336 56.7949C39.8638 53.2835 48.7932 46.987 53.2416 44.2777C40.7426 59.3633 51.5056 55.2234 58.4495 51.2678C64.5688 48.0166 67.943 34.6325 68.8653 28.3468C73.4222 52.1456 57.2581 65.8574 43.965 66.3859C30.1641 67.1662 25.1949 61.2924 24.4354 57.9328Z" stroke="white"/>
<path d="M57.4606 22.1695C57.4606 22.9701 56.8106 23.6202 56.0076 23.6202C55.2047 23.6202 54.5547 22.9701 54.5547 22.1695C54.5547 21.3688 55.2047 20.7188 56.0076 20.7188C56.8106 20.7188 57.4606 21.3688 57.4606 22.1695Z" fill="#E7F5F9" stroke="white"/>
<path d="M34.1588 68.6207C41.0081 69.4335 60.71 69.9537 84.7228 65.5321C74.3817 68.8375 49.7914 74.0828 34.1588 68.6207Z" fill="#E7F5F9"/>
<path d="M45.6415 79.0246C23.2402 79.4148 15.6254 67.6996 14.6182 61.7932C22.8373 72.8473 38.725 74.9064 45.6415 74.1478C48.2604 73.8606 76.0605 70.5715 78.4779 69.9212C80.8953 69.271 104.465 63.9065 115.545 64.0691C124.409 64.1991 138.174 67.5912 143.949 69.271C131.379 65.7597 108.68 68.1015 105.431 68.6207C101.362 69.271 57.2585 78.6453 45.6415 79.0246Z" fill="#E7F5F9"/>
<path d="M88.5504 76.0985C87.3417 76.4708 73.4416 79.6207 68.6068 80C84.5617 80 100.033 76.0985 100.033 76.0985C109.864 72.9774 119.084 72.6306 122.845 72.6848C124.658 72.6848 144.285 73.0641 151 74.4729C143.264 69.271 111.452 71.0592 111.452 71.0592C95.8199 74.5874 89.7591 75.7263 88.5504 76.0985Z" fill="#E7F5F9"/>
<path d="M34.1588 68.6207C41.0081 69.4335 60.71 69.9537 84.7228 65.5321C74.3817 68.8375 49.7914 74.0828 34.1588 68.6207Z" stroke="white"/>
<path d="M45.6415 79.0246C23.2402 79.4148 15.6254 67.6996 14.6182 61.7932C22.8373 72.8473 38.725 74.9064 45.6415 74.1478C48.2604 73.8606 76.0605 70.5715 78.4779 69.9212C80.8953 69.271 104.465 63.9065 115.545 64.0691C124.409 64.1991 138.174 67.5912 143.949 69.271C131.379 65.7597 108.68 68.1015 105.431 68.6207C101.362 69.271 57.2585 78.6453 45.6415 79.0246Z" stroke="white"/>
<path d="M88.5504 76.0985C87.3417 76.4708 73.4416 79.6207 68.6068 80C84.5617 80 100.033 76.0985 100.033 76.0985C109.864 72.9774 119.084 72.6306 122.845 72.6848C124.658 72.6848 144.285 73.0641 151 74.4729C143.264 69.271 111.452 71.0592 111.452 71.0592C95.8199 74.5874 89.7591 75.7263 88.5504 76.0985Z" stroke="white"/>
<path d="M92.3171 30.7994C92.3291 31.0034 92.3771 31.4774 92.4611 32.2214C92.5931 33.5414 92.6711 34.3454 92.6951 34.6334L92.8751 35.4794L93.0191 36.3254C93.2831 35.7974 93.4091 35.4914 93.3971 35.4074C93.3971 35.3234 93.4991 35.0114 93.7031 34.4714C93.9911 33.9554 94.1771 33.4994 94.2611 33.1034C94.2731 33.0314 94.3391 32.8574 94.4591 32.5814C94.4231 32.5454 94.4531 32.4314 94.5491 32.2394C94.6451 32.0354 94.7171 31.8194 94.7651 31.5914C94.8251 31.3634 94.8551 31.2434 94.8551 31.2314C94.8671 31.2194 94.8791 31.2074 94.8911 31.1954C94.9271 31.1594 94.9751 31.0514 95.0351 30.8714C95.0711 30.7034 95.0891 30.5714 95.0891 30.4754V29.9174C95.0891 29.8814 95.1191 29.7554 95.1791 29.5394L95.1611 29.1254C95.1611 28.8374 95.2991 28.4654 95.5751 28.0094L95.9351 27.7034C95.9351 27.5954 96.0251 27.5294 96.2051 27.5054C96.3971 27.4814 96.5651 27.4934 96.7091 27.5414C96.8531 27.5894 96.9491 27.6134 96.9971 27.6134C97.0451 27.6614 97.2191 27.7214 97.5191 27.7934C97.6631 27.8414 97.7531 27.9314 97.7891 28.0634C97.8371 28.1954 97.8611 28.3754 97.8611 28.6034L97.7351 30.0074C97.7351 30.0914 97.6991 30.6734 97.6271 31.7534L97.6451 32.3294C97.6331 32.3534 97.6271 32.5574 97.6271 32.9414V33.8774C97.6271 34.0574 97.6271 34.1714 97.6271 34.2194L97.6811 34.9034C97.6331 34.9034 97.7051 35.4374 97.8971 36.5054C97.8971 36.6734 97.9571 37.0394 98.0771 37.6034C98.2091 38.1554 98.2451 38.6174 98.1851 38.9894C98.1851 39.1814 98.0111 39.3554 97.6631 39.5114C97.3991 39.4634 97.2371 39.3854 97.1771 39.2774C97.0691 39.2174 97.0031 39.1694 96.9791 39.1334L96.8351 38.9534C96.6431 38.7974 96.4871 38.6114 96.3671 38.3954C96.2831 38.3114 96.2231 38.1914 96.1871 38.0354C96.0671 37.8674 95.9951 37.6574 95.9711 37.4054C95.9471 37.1534 95.8991 36.9794 95.8271 36.8834C95.7671 36.7754 95.7191 36.6734 95.6831 36.5774C95.5511 36.4454 95.4671 36.2114 95.4311 35.8754C95.3951 35.5274 95.3591 35.2274 95.3231 34.9754C95.3231 34.8314 95.3291 34.7234 95.3411 34.6514C95.3051 34.5554 95.2811 34.4834 95.2691 34.4354C95.2691 34.3874 95.2631 34.3334 95.2511 34.2734L95.1791 34.6154C95.1431 34.6754 95.0651 34.9094 94.9451 35.3174L94.5671 36.4874L94.2431 37.6214C94.1831 37.6574 94.1111 37.8014 94.0271 38.0534C93.9191 38.3294 93.8531 38.4794 93.8291 38.5034C93.8171 38.5274 93.7991 38.5634 93.7751 38.6114C93.6791 38.8034 93.5711 38.9594 93.4511 39.0794C93.1271 39.3794 92.7911 39.4634 92.4431 39.3314C92.1071 39.2114 91.8611 38.9714 91.7051 38.6114C91.6211 38.4074 91.5551 38.2754 91.5071 38.2154C91.4951 38.1194 91.4291 37.9514 91.3091 37.7114C91.2251 37.4834 91.1591 37.1954 91.1111 36.8474C91.0511 36.7394 91.0091 36.5534 90.9851 36.2894C90.9251 36.1814 90.8831 36.0254 90.8591 35.8214C90.8351 35.6174 90.7991 35.4194 90.7511 35.2274C90.6911 35.0234 90.6491 34.7774 90.6251 34.4894C90.6011 34.2734 90.5111 33.8774 90.3551 33.3014C90.3191 33.2654 90.2711 33.1454 90.2111 32.9414C90.1871 33.1334 90.1751 33.2414 90.1751 33.2654C90.1751 33.2774 90.1271 33.5714 90.0311 34.1474C90.0551 34.1714 90.0491 34.3514 90.0131 34.6874C89.9411 34.9154 89.8991 35.1554 89.8871 35.4074C89.7911 36.0554 89.7491 36.5414 89.7611 36.8654C89.7971 36.9734 89.7971 37.1054 89.7611 37.2614C89.7371 37.4054 89.7131 37.5554 89.6891 37.7114C89.6771 37.8554 89.6531 37.9874 89.6171 38.1074V38.2334C89.5811 38.6054 89.5751 38.8154 89.5991 38.8634C89.5991 38.9954 89.5451 39.1574 89.4371 39.3494C89.3411 39.5414 89.1851 39.6134 88.9691 39.5654C88.5851 39.4694 88.3631 39.3974 88.3031 39.3494C88.1711 39.1334 88.1051 38.9414 88.1051 38.7734V37.9094L88.1411 37.5854C88.1291 37.5494 88.1351 37.4114 88.1591 37.1714C88.1471 37.1594 88.1411 37.0634 88.1411 36.8834C88.1411 36.6914 88.1231 36.5474 88.0871 36.4514V36.2714C88.0631 35.8634 88.0571 35.6294 88.0691 35.5694C88.0931 35.4974 88.0931 35.3474 88.0691 35.1194C88.1171 35.1194 88.1471 35.0294 88.1591 34.8494C88.1711 34.6574 88.1891 34.4534 88.2131 34.2374L88.3391 34.1834C88.3151 34.1714 88.3091 34.0034 88.3211 33.6794C88.3331 33.5954 88.3631 33.3794 88.4111 33.0314C88.4591 32.6834 88.4771 32.4494 88.4651 32.3294C88.4651 32.1974 88.5311 31.9934 88.6631 31.7174C88.9151 30.9614 89.0471 30.4814 89.0591 30.2774C89.0831 30.0734 89.1191 29.8934 89.1671 29.7374C89.2151 29.3414 89.3291 29.0114 89.5091 28.7474C89.5931 28.4834 89.7491 28.3274 89.9771 28.2794L90.1931 28.1174H90.2111C90.4391 27.9494 90.8471 27.9254 91.4351 28.0454C91.9391 28.2734 92.2151 28.5554 92.2631 28.8914C92.2151 29.0594 92.2331 29.6414 92.3171 30.6374V30.7994ZM102.52 34.1114C102.544 34.0874 102.682 34.0634 102.934 34.0394C103.198 34.0034 103.504 33.8954 103.852 33.7154C103.864 33.7154 103.858 33.5714 103.834 33.2834C103.798 32.7794 103.768 32.4194 103.744 32.2034C103.72 31.9154 103.696 31.7114 103.672 31.5914C103.672 31.3634 103.582 30.8894 103.402 30.1694L102.61 32.8514C102.442 33.5954 102.376 34.0514 102.412 34.2194L102.52 34.1114ZM100.09 34.6334L100.198 33.8414C100.198 33.6854 100.222 33.5294 100.27 33.3734C100.27 33.1694 100.372 32.8634 100.576 32.4554C100.576 32.4314 100.63 32.2754 100.738 31.9874C100.738 31.9634 100.852 31.6094 101.08 30.9254L101.296 30.4034C101.296 30.3554 101.326 30.2654 101.386 30.1334C101.446 29.9894 101.488 29.8514 101.512 29.7194C101.548 29.5754 101.59 29.4374 101.638 29.3054C101.806 28.9814 101.956 28.7054 102.088 28.4774C102.34 27.9974 102.808 27.7814 103.492 27.8294L104.068 27.8834C104.428 27.9794 104.704 28.0814 104.896 28.1894C105.172 28.2974 105.358 28.4174 105.454 28.5494C105.55 28.6694 105.592 28.8734 105.58 29.1614C105.592 29.3054 105.628 29.9294 105.688 31.0334C105.748 32.1374 105.778 32.6954 105.778 32.7074L105.868 33.4814C105.868 33.5534 106 34.4174 106.264 36.0734L106.66 37.3334C106.9 38.0054 107.026 38.3594 107.038 38.3954C107.062 38.4194 107.116 38.5454 107.2 38.7734C107.332 39.1694 107.218 39.4334 106.858 39.5654C106.534 39.6134 106.294 39.5834 106.138 39.4754C106.078 39.4754 105.94 39.4214 105.724 39.3134C105.7 39.2534 105.628 39.1934 105.508 39.1334C105.4 39.0854 105.328 39.0434 105.292 39.0074C105.16 38.9714 105.04 38.7854 104.932 38.4494C104.896 38.4254 104.83 38.3294 104.734 38.1614C104.65 37.9934 104.626 37.8554 104.662 37.7474C104.578 37.6394 104.536 37.4174 104.536 37.0814C104.428 36.9014 104.374 36.6194 104.374 36.2354C104.374 35.8514 104.314 35.5514 104.194 35.3354C103.582 35.6114 102.928 35.7614 102.232 35.7854C102.1 35.7854 102.034 35.8094 102.034 35.8574C102.034 35.9654 101.998 36.1574 101.926 36.4334L101.62 38.4134C101.74 39.3014 101.632 39.7694 101.296 39.8174C101.2 39.8174 101.038 39.8414 100.81 39.8894C100.594 39.9374 100.414 39.8954 100.27 39.7634C99.9936 39.6074 99.7956 39.4454 99.6756 39.2774C99.5676 39.1214 99.5196 38.9414 99.5316 38.7374C99.5436 38.5694 99.5736 38.2094 99.6216 37.6574C99.6456 37.6334 99.6516 37.5014 99.6396 37.2614C99.6396 37.0094 99.6576 36.8174 99.6936 36.6854L99.9816 35.5694C100.018 35.5454 100.066 35.3654 100.126 35.0294C100.114 35.0054 100.108 34.9454 100.108 34.8494L100.09 34.6334ZM110.364 37.9274C110.34 37.9754 110.328 38.0174 110.328 38.0534C110.328 38.0894 110.316 38.1314 110.292 38.1794C110.268 38.2154 110.226 38.2814 110.166 38.3774C110.106 38.4614 110.052 38.5334 110.004 38.5934C109.968 38.6414 109.902 38.7254 109.806 38.8454C109.71 38.9534 109.626 39.0254 109.554 39.0614C109.494 39.0974 109.416 39.1394 109.32 39.1874C109.224 39.2354 109.122 39.2534 109.014 39.2414C108.918 39.2414 108.81 39.2234 108.69 39.1874C108.57 39.1514 108.384 38.9414 108.132 38.5574C107.952 38.1854 107.94 37.8014 108.096 37.4054C108.528 36.4934 108.768 35.9774 108.816 35.8574L109.032 35.4794C109.128 35.1794 109.2 34.9814 109.248 34.8854C109.308 34.7894 109.392 34.6754 109.5 34.5434C109.608 34.4114 109.698 34.2854 109.77 34.1654C109.986 33.7694 110.316 33.3134 110.76 32.7974C110.508 32.2574 110.346 31.8614 110.274 31.6094L110.058 31.1594C109.95 31.0754 109.86 30.9314 109.788 30.7274C109.284 29.8394 109.02 29.3654 108.996 29.3054C108.972 29.2334 108.9 29.0954 108.78 28.8914C108.528 28.4594 108.402 28.1114 108.402 27.8474C108.402 27.5834 108.468 27.3854 108.6 27.2534C108.744 27.1094 108.942 27.0494 109.194 27.0734C109.218 27.0734 109.284 27.0734 109.392 27.0734C109.512 27.0614 109.59 27.0614 109.626 27.0734C109.674 27.0734 109.74 27.0914 109.824 27.1274C109.92 27.1514 109.998 27.1994 110.058 27.2714C110.214 27.4274 110.37 27.6794 110.526 28.0274L110.76 28.4054L111.12 29.1074L111.336 29.6294C111.636 30.0734 111.882 30.5234 112.074 30.9794C112.146 30.8354 112.248 30.6734 112.38 30.4934C112.524 30.3014 112.602 30.1934 112.614 30.1694C112.626 30.1454 112.662 30.0914 112.722 30.0074C112.782 29.9114 112.854 29.7974 112.938 29.6654L113.316 29.3234C113.328 29.3114 113.376 29.2154 113.46 29.0354L113.802 28.5494C113.85 28.5254 113.928 28.4654 114.036 28.3694C114.06 28.2734 114.264 27.9614 114.648 27.4334C114.852 27.2894 115.05 27.2114 115.242 27.1994C115.434 27.1754 115.614 27.1814 115.782 27.2174C115.95 27.2534 116.16 27.3734 116.412 27.5774C116.736 27.9854 116.544 28.6334 115.836 29.5214L115.314 30.4574L114.63 31.5554C114.45 31.7954 113.946 32.4014 113.118 33.3734C113.142 33.4334 113.418 33.9434 113.946 34.9034L114.288 35.6054C114.372 35.7254 114.462 35.8754 114.558 36.0554L115.098 37.3874C115.218 37.5554 115.296 37.6934 115.332 37.8014C115.356 37.8734 115.434 38.0534 115.566 38.3414C115.662 38.7974 115.482 39.1034 115.026 39.2594C114.834 39.3314 114.66 39.3254 114.504 39.2414L114.288 39.1694C114.06 39.1094 113.88 38.9834 113.748 38.7914L113.622 38.6474L113.46 38.3774C113.304 38.2214 113.196 38.0714 113.136 37.9274L113.01 37.6574C112.902 37.5734 112.74 37.2134 112.524 36.5774C112.5 36.5534 112.296 36.0374 111.912 35.0294C111.888 35.0654 111.822 35.2034 111.714 35.4434C111.39 36.1394 111.12 36.6374 110.904 36.9374C110.904 37.0334 110.724 37.3634 110.364 37.9274ZM79.1183 44.9714L78.9783 47.3514C79.0449 47.3114 79.3116 47.2848 79.7783 47.2714C80.2449 47.2448 80.5516 47.2448 80.6983 47.2714L81.4383 47.6114C81.6249 47.7314 81.8449 47.9381 82.0983 48.2314C82.2583 48.5781 82.0649 48.8448 81.5183 49.0314C80.9983 49.1114 80.6649 49.1514 80.5183 49.1514L78.9383 49.2314V50.1514C79.0183 51.7914 79.0583 52.7448 79.0583 53.0114C79.1249 53.4114 79.1583 53.6514 79.1583 53.7314V54.1714C79.1583 54.4248 79.1249 54.5848 79.0583 54.6514C78.8983 54.8514 78.7983 54.9581 78.7583 54.9714C78.2116 55.1848 77.6316 55.0514 77.0183 54.5714L76.6983 54.1514C76.6983 54.0981 76.6583 53.8981 76.5783 53.5514C76.5916 53.5114 76.5383 53.2914 76.4183 52.8914C76.4183 52.8114 76.4316 52.7114 76.4583 52.5914C76.4983 52.4714 76.5183 52.3381 76.5183 52.1914C76.5183 52.0448 76.4849 51.8914 76.4183 51.7314C76.4183 51.5581 76.4049 51.4048 76.3783 51.2714V51.0714C76.4049 50.9248 76.4183 50.7714 76.4183 50.6114C76.4316 50.4381 76.4516 50.2714 76.4783 50.1114C76.5183 49.9381 76.5249 49.7781 76.4983 49.6314V49.5714C76.3116 49.4781 76.1716 49.4381 76.0783 49.4514C75.9983 49.4648 75.9049 49.4248 75.7983 49.3314C75.7049 49.2248 75.6516 49.1248 75.6383 49.0314C75.6249 48.9381 75.7649 48.7514 76.0583 48.4714C76.0849 48.4181 76.2449 48.3248 76.5383 48.1914V47.7914L76.6383 46.6714C76.5983 46.3114 76.5983 46.0381 76.6383 45.8514C76.6783 45.6648 76.6849 45.5114 76.6583 45.3914L76.7783 44.9514C76.1116 45.0714 75.6316 45.0981 75.3383 45.0314C75.0849 44.9114 74.9516 44.7181 74.9383 44.4514C74.9249 44.4381 74.9583 44.2448 75.0383 43.8714C74.9983 43.6848 75.1583 43.4514 75.5183 43.1714C75.8116 43.0381 76.0916 42.9448 76.3583 42.8914C76.8649 42.7181 77.3183 42.6048 77.7183 42.5514C78.5049 42.4181 79.1383 42.3048 79.6183 42.2114L80.5583 41.8714C80.7716 41.7514 80.9183 41.6981 80.9983 41.7114C81.0916 41.7248 81.2249 41.6981 81.3983 41.6314C81.4249 41.5648 81.5783 41.5048 81.8583 41.4514C82.4316 41.3448 82.7649 41.4048 82.8583 41.6314C82.9783 41.6581 83.1383 41.7514 83.3383 41.9114C83.3783 41.9248 83.5316 42.1848 83.7983 42.6914C83.8383 42.7981 83.8183 42.9114 83.7383 43.0314C83.6583 43.1381 83.5316 43.1981 83.3583 43.2114L82.8183 43.4114C82.6583 43.4248 82.4316 43.4981 82.1383 43.6314C81.5916 43.7781 81.2849 43.8514 81.2183 43.8514C81.1516 43.8514 81.0849 43.8581 81.0183 43.8714C80.8183 43.9114 80.6049 43.9648 80.3783 44.0314C80.1516 44.0981 79.9583 44.1314 79.7983 44.1314C79.4249 44.2114 79.2183 44.3048 79.1783 44.4114C79.1649 44.4381 79.1583 44.4781 79.1583 44.5314L79.1183 44.7714V44.9714ZM85.8281 42.4314C86.7215 42.4314 87.3481 42.6114 87.7081 42.9714C87.7081 43.1981 87.5548 43.6581 87.2481 44.3514C87.1948 44.5781 87.1081 44.7581 86.9881 44.8914L86.7281 45.1514C86.6615 45.1914 86.5948 45.2114 86.5281 45.2114C86.0481 45.3314 85.6748 45.2381 85.4081 44.9314C85.3548 44.8514 85.2881 44.7914 85.2081 44.7514C85.1415 44.7114 85.0881 44.5914 85.0481 44.3914C84.9281 44.2181 84.8681 44.0848 84.8681 43.9914C84.8415 43.1648 85.1415 42.6448 85.7681 42.4314H85.8281ZM85.6681 47.1514C85.8015 47.0848 86.1148 47.1514 86.6081 47.3514C86.6615 47.4048 86.7415 47.4581 86.8481 47.5114L87.1681 47.7714C87.2215 47.8248 87.2481 47.9114 87.2481 48.0314V49.7914C87.2481 50.0581 87.2348 50.2981 87.2081 50.5114V50.6314C87.1681 51.1781 87.2015 52.4114 87.3081 54.3314C87.3481 54.7048 87.2615 54.9314 87.0481 55.0114C86.8215 55.0114 86.6748 54.9781 86.6081 54.9114C86.5548 54.8848 86.5081 54.8714 86.4681 54.8714H86.3281L86.2081 54.9114C86.1681 54.9114 86.0948 54.8848 85.9881 54.8314C85.8815 54.7648 85.8081 54.6981 85.7681 54.6314C85.7415 54.5648 85.6881 54.5248 85.6081 54.5114C85.4615 54.4581 85.3815 54.3581 85.3681 54.2114C85.1815 53.8514 85.0815 53.6381 85.0681 53.5714C85.0681 53.5048 85.0481 53.4314 85.0081 53.3514L84.9081 51.6114C84.9081 51.4114 84.9215 51.2581 84.9481 51.1514V50.6714C84.9615 50.5248 84.9748 50.2581 84.9881 49.8714C85.0015 49.4714 85.0215 49.1514 85.0481 48.9114C85.0215 48.5648 85.0081 48.3314 85.0081 48.2114C85.0081 48.0914 85.0148 48.0048 85.0281 47.9514C84.8815 47.8048 84.8881 47.6048 85.0481 47.3514C85.2215 47.2181 85.3881 47.1514 85.5481 47.1514H85.6681ZM89.9194 47.2114C90.2794 46.7714 90.7727 46.5381 91.3994 46.5114C92.426 46.4714 93.186 46.7248 93.6794 47.2714C94.186 47.8181 94.4527 48.3581 94.4794 48.8914C94.5194 49.4248 94.386 49.7114 94.0794 49.7514C93.6394 49.7648 93.3527 49.7048 93.2194 49.5714C93.0994 49.5848 92.946 49.4981 92.7594 49.3114C92.6794 49.2714 92.5727 49.1181 92.4394 48.8514L92.2194 48.3514C92.1127 48.1114 91.9794 47.9781 91.8194 47.9514C91.6194 48.0314 91.5194 48.2314 91.5194 48.5514C91.5727 49.1781 91.8727 49.7781 92.4194 50.3514C92.4194 50.3514 92.426 50.3714 92.4394 50.4114C92.466 50.4381 92.566 50.5448 92.7394 50.7314C93.7927 51.8914 94.3394 52.8248 94.3794 53.5314C94.3794 53.9848 94.286 54.2848 94.0994 54.4314C93.526 55.1114 92.7794 55.4648 91.8594 55.4914C90.9394 55.5181 90.1794 55.2314 89.5794 54.6314C89.4194 54.4714 89.3394 54.3181 89.3394 54.1714C89.2594 53.9181 89.2327 53.7514 89.2594 53.6714C89.2194 53.2981 89.2194 53.0181 89.2594 52.8314C89.3394 52.4048 89.6527 52.1848 90.1994 52.1714C90.3994 52.1714 90.526 52.2914 90.5794 52.5314C90.7527 53.2114 90.9127 53.6581 91.0594 53.8714C91.2194 54.0848 91.4727 54.1848 91.8194 54.1714C92.2594 54.1448 92.466 53.8981 92.4394 53.4314C92.426 52.9648 92.206 52.5314 91.7794 52.1314C91.646 51.9714 91.5127 51.8514 91.3794 51.7714C91.2594 51.6781 91.1794 51.6114 91.1394 51.5714C91.126 51.5314 91.0927 51.4914 91.0394 51.4514C90.7727 51.2381 90.4327 50.8848 90.0194 50.3914C89.6194 49.8981 89.406 49.4381 89.3794 49.0114C89.326 48.2514 89.506 47.6514 89.9194 47.2114ZM96.3363 43.0714L96.3763 42.8114C96.3763 42.7714 96.3896 42.7114 96.4163 42.6314C96.4696 42.6181 96.4963 42.5714 96.4963 42.4914C96.4963 42.4114 96.5096 42.3381 96.5363 42.2714C96.5229 42.1914 96.5763 42.0648 96.6963 41.8914C96.8163 41.7048 96.9363 41.5648 97.0563 41.4714C97.1363 41.4714 97.1896 41.4581 97.2163 41.4314H97.4563C97.8296 41.4314 98.0496 41.4581 98.1163 41.5114C98.2629 41.5781 98.3363 41.8181 98.3363 42.2314C98.3496 42.2714 98.3563 42.3714 98.3563 42.5314L98.3363 42.6714V42.8314C98.3363 42.8981 98.3363 42.9714 98.3363 43.0514C98.3496 43.1314 98.3496 43.2114 98.3363 43.2914V43.8314C98.3096 44.6848 98.2963 45.2514 98.2963 45.5314C98.2963 45.7981 98.2896 45.9448 98.2763 45.9714C98.2896 46.0381 98.2963 46.5181 98.2963 47.4114C98.3363 48.0781 98.3563 48.7114 98.3563 49.3114V49.7714C98.3563 50.0781 98.3496 50.2914 98.3363 50.4114L98.3563 50.5914C98.3296 50.6181 98.3163 50.6981 98.3163 50.8314V51.1114L98.5363 50.5314C98.5363 50.4248 98.5963 50.2714 98.7163 50.0714L98.7963 49.7714C98.7963 49.7181 98.8496 49.5781 98.9563 49.3514C99.0763 49.1248 99.1629 48.9048 99.2163 48.6914L99.3563 48.4514C99.3563 48.3181 99.3829 48.2248 99.4363 48.1714L99.4563 48.0514C99.5629 47.8648 99.6163 47.7448 99.6163 47.6914L99.6363 47.3914C99.6363 47.3648 99.6496 47.3314 99.6763 47.2914C99.7696 47.1848 99.8363 47.0514 99.8763 46.8914C100.21 46.4514 100.663 46.2714 101.236 46.3514C101.93 46.4448 102.276 46.8848 102.276 47.6714V48.2714C102.316 48.4714 102.31 48.6248 102.256 48.7314L102.276 49.0714V49.4514L102.336 50.5914V51.0114C102.336 51.1048 102.33 51.1848 102.316 51.2514C102.33 51.2914 102.336 51.3781 102.336 51.5114C102.31 51.5248 102.31 51.5848 102.336 51.6914C102.363 51.7848 102.376 51.8581 102.376 51.9114C102.376 51.9514 102.39 52.1381 102.416 52.4714C102.416 53.2581 102.503 53.9914 102.676 54.6714L102.696 54.8114V54.9314C102.816 55.2648 102.796 55.4848 102.636 55.5914C102.49 55.6848 102.356 55.6714 102.236 55.5514C102.196 55.5648 102.043 55.5581 101.776 55.5314C101.63 55.6114 101.37 55.5048 100.996 55.2114C100.916 55.1581 100.843 55.0914 100.776 55.0114C100.763 54.9848 100.743 54.9314 100.716 54.8514C100.663 54.6648 100.63 54.5181 100.616 54.4114C100.496 54.1981 100.436 54.0648 100.436 54.0114L100.316 53.0514C100.37 53.0381 100.356 52.8714 100.276 52.5514C100.196 52.2314 100.143 51.7981 100.116 51.2514V51.0714C100.116 50.8181 100.123 50.6914 100.136 50.6914C100.043 50.6914 99.9296 51.0248 99.7963 51.6914L99.6563 52.3514V52.5514C99.6029 52.6581 99.5429 52.7381 99.4763 52.7914L98.8563 55.3514C98.8829 55.4581 98.8696 55.5314 98.8163 55.5714C98.7629 55.6248 98.6629 55.6581 98.5163 55.6714H97.9963C97.9429 55.7248 97.8629 55.7514 97.7563 55.7514C97.4229 55.7514 97.2363 55.6381 97.1963 55.4114C97.0496 55.3714 96.9763 55.2914 96.9763 55.1714V55.0514C96.8163 54.7314 96.7296 54.5248 96.7163 54.4314C96.7163 54.3381 96.7163 54.2514 96.7163 54.1714C96.6896 54.1181 96.6763 54.0448 96.6763 53.9514C96.6496 53.9248 96.6363 53.8514 96.6363 53.7314C96.5696 53.5581 96.5496 53.2781 96.5763 52.8914L96.5563 52.6514C96.5696 52.4648 96.5763 52.3248 96.5763 52.2314V51.8714L96.5963 51.6914V51.4714C96.5963 51.4181 96.5829 51.3248 96.5563 51.1914C96.5963 51.1248 96.6029 51.0448 96.5763 50.9514V50.4514C96.5763 50.1981 96.5696 50.0448 96.5563 49.9914V49.3914C96.5429 49.2048 96.5429 49.0781 96.5563 49.0114L96.4762 48.2914C96.5029 48.0381 96.4896 47.7914 96.4363 47.5514C96.4496 47.4981 96.4229 47.2048 96.3563 46.6714C96.3029 46.1381 96.2896 45.8248 96.3163 45.7314C96.3163 45.6381 96.3029 45.5381 96.2763 45.4314C96.2629 45.3248 96.2763 45.2448 96.3163 45.1914C96.3163 45.1781 96.3029 45.0914 96.2763 44.9314C96.2496 44.7848 96.2496 44.6248 96.2763 44.4514C96.2496 44.3848 96.2496 44.2781 96.2763 44.1314C96.3163 44.0914 96.3229 44.0114 96.2963 43.8914V43.5514L96.3763 43.3514C96.3496 43.2714 96.3363 43.1781 96.3363 43.0714ZM105.614 42.0314C105.627 42.0181 105.754 41.9981 105.994 41.9714C106.38 41.9048 106.647 41.9314 106.794 42.0514C106.954 42.1581 107.067 42.2781 107.134 42.4114C107.16 42.8381 107.1 43.3914 106.954 44.0714C106.807 44.5114 106.68 44.8381 106.574 45.0514L106.374 45.3514C106.334 45.4581 106.247 45.5714 106.114 45.6914C105.98 45.8114 105.88 45.8714 105.814 45.8714C105.76 45.8581 105.66 45.8114 105.514 45.7314C105.38 45.6381 105.3 45.5714 105.274 45.5314C105.26 45.4914 105.247 45.4448 105.234 45.3914L105.134 44.9914L104.734 44.4914C104.654 44.3314 104.614 44.1714 104.614 44.0114C104.574 43.6381 104.62 43.3514 104.754 43.1514C104.754 43.1248 104.774 43.0581 104.814 42.9514C104.88 42.6581 105.147 42.3514 105.614 42.0314ZM105.014 51.0114C105.014 50.8914 105.034 50.7314 105.074 50.5314C105.127 50.3181 105.14 50.1714 105.114 50.0914C105.1 50.0114 105.1 49.7848 105.114 49.4114C105.154 49.2514 105.16 49.0714 105.134 48.8714C105.04 48.5781 105.014 48.3648 105.054 48.2314C105.094 48.0981 105.18 47.9514 105.314 47.7914C105.447 47.6181 105.594 47.4981 105.754 47.4314C105.914 47.3648 106.154 47.3714 106.474 47.4514C106.554 47.4914 106.687 47.6248 106.874 47.8514C106.914 47.8914 106.96 48.0448 107.014 48.3114C107.08 48.5781 107.12 48.8714 107.134 49.1914C107.16 49.4981 107.18 49.9514 107.194 50.5514C107.207 51.1381 107.234 51.9314 107.274 52.9314C107.314 53.9181 107.32 54.5314 107.294 54.7714C107.28 55.0114 107.194 55.1914 107.034 55.3114C106.887 55.4448 106.754 55.4714 106.634 55.3914C106.527 55.3248 106.414 55.2781 106.294 55.2514C106.08 55.2514 105.894 55.1648 105.734 54.9914C105.68 54.9781 105.554 54.9181 105.354 54.8114C105.154 54.6914 105.027 54.4781 104.974 54.1714C104.907 54.0381 104.887 53.6048 104.914 52.8714V52.1514L105.014 51.4714V51.0114ZM111.185 52.6114C111.305 52.3314 111.432 52.0048 111.565 51.6314L112.005 50.5114L112.185 50.1714C109.478 53.3714 109.505 53.3381 112.265 50.0714L112.785 48.9914C112.825 48.9514 112.858 48.8648 112.885 48.7314L113.405 47.9514L113.805 47.5914C113.885 47.5514 113.972 47.4848 114.065 47.3914C114.092 47.4181 114.198 47.3914 114.385 47.3114C114.505 47.3114 114.745 47.3314 115.105 47.3714L115.505 47.5114L116.405 48.0514C116.592 48.2381 116.672 48.4381 116.645 48.6514C116.632 48.8114 116.558 49.2514 116.425 49.9714C116.318 50.5448 116.165 51.2048 115.965 51.9514C115.858 52.5514 115.825 52.9848 115.865 53.2514C115.905 53.5181 115.925 53.6714 115.925 53.7114C115.952 53.7914 115.985 53.9048 116.025 54.0514C116.078 54.1981 116.092 54.2781 116.065 54.2914C116.158 54.3048 116.205 54.3714 116.205 54.4914C116.312 54.7714 116.345 54.9581 116.305 55.0514C116.278 55.1581 116.192 55.2714 116.045 55.3914C115.912 55.5114 115.665 55.5714 115.305 55.5714C115.092 55.5448 114.918 55.5314 114.785 55.5314C114.665 55.5314 114.512 55.4848 114.325 55.3914C113.938 55.1114 113.718 54.8248 113.665 54.5314C113.598 54.3448 113.558 54.2048 113.545 54.1114C113.532 54.0181 113.525 53.9514 113.525 53.9114C113.458 53.5114 113.465 53.0981 113.545 52.6714C113.558 52.5114 113.618 52.1848 113.725 51.6914C113.832 51.1848 113.938 50.7848 114.045 50.4914C114.045 50.1981 114.038 50.0448 114.025 50.0314L113.245 51.5514C113.165 51.7648 113.092 51.9248 113.025 52.0314C112.958 52.0981 112.925 52.1781 112.925 52.2714C112.818 52.3781 112.718 52.5914 112.625 52.9114C112.625 53.0048 112.618 53.0714 112.605 53.1114C112.592 53.1514 112.538 53.2514 112.445 53.4114C112.365 53.5581 112.305 53.6981 112.265 53.8314C112.238 53.9648 112.158 54.1114 112.025 54.2714C112.025 54.3248 111.938 54.5981 111.765 55.0914C111.752 55.1448 111.612 55.1914 111.345 55.2314L110.965 55.1914C110.872 55.1648 110.652 55.0981 110.305 54.9914C109.958 54.8848 109.765 54.8314 109.725 54.8314C109.698 54.8314 109.672 54.8181 109.645 54.7914C109.418 54.7381 109.278 54.5514 109.225 54.2314V53.9114C109.292 53.8314 109.298 53.6781 109.245 53.4514C109.272 53.3181 109.292 53.1648 109.305 52.9914C109.265 52.9648 109.258 52.9181 109.285 52.8514C109.312 52.4248 109.325 52.1248 109.325 51.9514V51.4714C109.352 51.0314 109.385 50.5581 109.425 50.0514C109.465 49.5448 109.485 49.2181 109.485 49.0714V48.6714C109.458 48.6048 109.452 48.4514 109.465 48.2114C109.438 47.9581 109.405 47.8048 109.365 47.7514C109.325 47.6848 109.312 47.5914 109.325 47.4714L109.465 47.1314C109.678 46.9581 110.038 46.9248 110.545 47.0314C110.772 47.0714 111.085 47.2048 111.485 47.4314C111.512 47.4714 111.578 47.5581 111.685 47.6914C111.765 47.6914 111.812 47.8048 111.825 48.0314C111.812 48.1514 111.805 48.2514 111.805 48.3314C111.792 48.3448 111.718 48.6514 111.585 49.2514C111.292 51.1048 111.145 52.1114 111.145 52.2714C111.145 52.4314 111.158 52.5448 111.185 52.6114ZM120.661 51.0714L120.701 51.8514L120.841 52.2314L121.041 52.6314C121.081 52.9114 121.215 53.0781 121.441 53.1314C121.601 53.1581 121.755 53.0714 121.901 52.8714C121.981 52.8048 122.041 52.7581 122.081 52.7314C122.161 52.6648 122.201 52.5181 122.201 52.2914C122.201 52.0514 122.221 51.8581 122.261 51.7114C122.248 51.6448 122.255 51.4114 122.281 51.0114C122.321 50.5981 122.355 50.2848 122.381 50.0714C122.421 49.8448 122.435 49.6914 122.421 49.6114C122.328 49.4914 122.241 49.2448 122.161 48.8714C121.895 48.6048 121.715 48.4581 121.621 48.4314C121.328 48.3248 121.148 48.3114 121.081 48.3914C120.988 48.4848 120.888 48.9248 120.781 49.7114C120.701 49.8448 120.661 50.0181 120.661 50.2314C120.675 50.4314 120.675 50.5848 120.661 50.6914V51.0714ZM124.381 50.5314C124.435 51.1981 124.461 51.7181 124.461 52.0914L124.481 52.3514L124.441 53.5714C124.441 53.7581 124.435 53.9314 124.421 54.0914V54.4114L124.341 54.9314V55.1314C124.341 55.6248 124.115 56.3248 123.661 57.2314C123.501 57.5648 123.255 57.9048 122.921 58.2514C122.361 58.8514 121.675 59.1648 120.861 59.1914C120.181 59.1914 119.681 59.0514 119.361 58.7714L119.161 58.6714C119.001 58.5914 118.821 58.3381 118.621 57.9114C118.621 57.8714 118.588 57.7848 118.521 57.6514C118.521 57.4648 118.561 57.3181 118.641 57.2114C118.695 57.1048 118.875 57.0114 119.181 56.9314C119.315 56.9048 119.561 57.0381 119.921 57.3314C120.188 57.6248 120.501 57.7781 120.861 57.7914C121.235 57.8448 121.521 57.6714 121.721 57.2714C121.921 56.8714 122.075 56.3381 122.181 55.6714C122.235 55.4181 122.261 55.1314 122.261 54.8114C122.261 54.4914 122.248 54.2781 122.221 54.1714C121.861 54.3581 121.541 54.4381 121.261 54.4114H121.081C120.975 54.4381 120.815 54.4381 120.601 54.4114C120.388 54.3714 120.188 54.2848 120.001 54.1514L119.621 53.8914C119.635 53.9048 119.628 53.9114 119.601 53.9114L119.501 53.8514L119.221 53.6314C119.101 53.5648 119.041 53.4381 119.041 53.2514C118.948 53.1981 118.881 53.1314 118.841 53.0514C118.735 53.0114 118.681 52.9181 118.681 52.7714L118.581 52.3714C118.581 52.3048 118.548 52.1381 118.481 51.8714C118.415 51.7648 118.395 51.6581 118.421 51.5514C118.461 51.4448 118.481 51.3581 118.481 51.2914L118.541 50.6114V50.4714C118.501 50.4314 118.501 50.3048 118.541 50.0914C118.581 50.0114 118.601 49.9514 118.601 49.9114C118.681 49.4848 118.741 49.2181 118.781 49.1114C118.821 48.9914 118.848 48.8581 118.861 48.7114C118.888 48.5648 118.941 48.4314 119.021 48.3114L119.221 47.8514C119.301 47.7048 119.515 47.4981 119.861 47.2314C119.995 47.0981 120.161 47.0114 120.361 46.9714L120.921 47.0114L121.501 47.1514C121.515 47.1514 121.761 47.2514 122.241 47.4514C122.241 47.1981 122.368 46.9848 122.621 46.8114C122.728 46.7048 122.961 46.6981 123.321 46.7914H123.501C123.648 46.7781 123.808 46.8381 123.981 46.9714C124.061 47.0648 124.148 47.2781 124.241 47.6114C124.335 48.8514 124.381 49.8248 124.381 50.5314Z" fill="white"/>
</svg>
