<svg width="226" height="120" viewBox="0 0 226 120" fill="none" xmlns="http://www.w3.org/2000/svg">
<path d="M55.6327 1.05464C67.6481 1.51325 77.2405 6.6587 83.3022 11.6013C85.811 13.6469 84.0343 17.0283 80.815 16.6894C80.2228 16.6271 79.6535 16.4214 79.1499 16.1034C68.7583 9.54217 59.1879 8.34478 55.6327 8.5818C36.2078 7.4163 21.6391 19.2655 16.7828 25.3358C8.62437 34.077 6.42287 49.2122 6.34193 55.6872C8.67291 83.0763 30.2993 96.3986 40.8212 99.6361C24.0672 95.5083 1.00004 71.9889 1 49.8597C0.99998 37.901 4.56434 29.8882 7.47805 24.5464C10.3918 19.2045 23.8243 -0.15942 55.6327 1.05464Z" fill="#0100C3" stroke="#1C74BB"/>
<path d="M18.4046 51.0128C15.2481 61.9393 19.8584 76.407 23.3387 82.1536C6.82757 39.6615 60.246 24.6073 82.8275 25.5786C100.893 26.3556 94.0778 36.1004 88.4122 40.8757C79.4767 50.3939 68.3398 44.8416 63.8882 40.8757C70.2984 53.1134 80.9659 51.1547 85.4984 48.6456C95.7936 45.1492 101.443 31.8107 102.981 25.5786C88.8007 15.4776 61.9457 20.7223 50.2908 24.6073L56.8467 20.9651C44.8032 15.1376 32.7274 17.242 28.1949 19.0226C32.0799 21.3536 31.2736 28.1885 29.8168 31.1023C24.7177 37.4154 19.6505 46.7002 18.4046 51.0128Z" fill="#0100C3"/>
<path d="M35.9649 86.0386C31.1087 70.3044 62.5932 56.6584 78.9425 51.8022C64.8595 78.0257 51.9905 76.0833 54.6614 74.8693C56.7981 73.898 59.1129 67.0184 60.0032 63.6999C48.5425 69.5274 45.3536 78.4305 45.1917 82.1536C44.609 94.0228 58.2226 94.0597 65.1023 92.5945C59.2748 92.5945 58.5464 90.8948 58.7892 84.3389C58.9834 79.0942 72.3057 69.6893 78.9425 65.6424C60.2946 88.1753 76.3525 81.9917 86.7125 76.0833C95.8422 71.2271 100.876 51.2356 102.252 41.8469C109.051 77.3945 84.935 97.8754 65.1023 98.6647C44.5119 99.8302 37.098 91.0567 35.9649 86.0386Z" fill="#0100C3"/>
<path d="M18.4046 51.0128C15.2481 61.9393 19.8584 76.407 23.3387 82.1536C6.82757 39.6615 60.246 24.6073 82.8275 25.5786C100.893 26.3556 94.0778 36.1004 88.4122 40.8757C79.4767 50.3939 68.3398 44.8416 63.8882 40.8757C70.2984 53.1134 80.9659 51.1547 85.4984 48.6456C95.7936 45.1492 101.443 31.8107 102.981 25.5786C88.8007 15.4776 61.9457 20.7223 50.2908 24.6073L56.8467 20.9651C44.8032 15.1376 32.7274 17.242 28.1949 19.0226C32.0799 21.3536 31.2736 28.1885 29.8168 31.1023C24.7177 37.4154 19.6505 46.7002 18.4046 51.0128Z" stroke="#1C74BB"/>
<path d="M35.9649 86.0386C31.1087 70.3044 62.5932 56.6584 78.9425 51.8022C64.8595 78.0257 51.9905 76.0833 54.6614 74.8693C56.7981 73.898 59.1129 67.0184 60.0032 63.6999C48.5425 69.5274 45.3536 78.4305 45.1917 82.1536C44.609 94.0228 58.2226 94.0597 65.1023 92.5945C59.2748 92.5945 58.5464 90.8948 58.7892 84.3389C58.9834 79.0942 72.3057 69.6893 78.9425 65.6424C60.2946 88.1753 76.3525 81.9917 86.7125 76.0833C95.8422 71.2271 100.876 51.2356 102.252 41.8469C109.051 77.3945 84.935 97.8754 65.1023 98.6647C44.5119 99.8302 37.098 91.0567 35.9649 86.0386Z" stroke="#1C74BB"/>
<circle cx="83.07" cy="32.6202" r="2.41374" fill="#0100C3" stroke="#1C74BB"/>
<path d="M50.4722 102.003C60.6911 103.217 90.0854 103.994 125.912 97.3897C110.483 102.327 73.7953 110.162 50.4722 102.003Z" fill="#0100C3"/>
<path d="M67.6039 117.543C34.1821 118.126 22.8211 100.627 21.3184 91.8051C33.581 108.316 57.2848 111.392 67.6039 110.259C71.5111 109.83 112.988 104.917 116.594 103.946C120.201 102.974 155.366 94.9616 171.897 95.2044C185.121 95.3987 205.659 100.465 214.275 102.974C195.52 97.7297 161.654 101.228 156.807 102.003C150.737 102.974 84.9359 116.977 67.6039 117.543Z" fill="#0100C3"/>
<path d="M131.622 113.172C129.819 113.728 109.081 118.433 101.867 119C125.671 119 148.754 113.172 148.754 113.172C163.421 108.51 177.178 107.992 182.788 108.073C185.493 108.073 214.776 108.64 224.794 110.744C213.253 102.974 165.791 105.645 165.791 105.645C142.468 110.915 133.425 112.616 131.622 113.172Z" fill="#0100C3"/>
<path d="M50.4722 102.003C60.6911 103.217 90.0854 103.994 125.912 97.3897C110.483 102.327 73.7953 110.162 50.4722 102.003Z" stroke="#1C74BB"/>
<path d="M67.6039 117.543C34.1821 118.126 22.8211 100.627 21.3184 91.8051C33.581 108.316 57.2848 111.392 67.6039 110.259C71.5111 109.83 112.988 104.917 116.594 103.946C120.201 102.974 155.366 94.9616 171.897 95.2044C185.121 95.3987 205.659 100.465 214.275 102.974C195.52 97.7297 161.654 101.228 156.807 102.003C150.737 102.974 84.9359 116.977 67.6039 117.543Z" stroke="#1C74BB"/>
<path d="M131.622 113.172C129.819 113.728 109.081 118.433 101.867 119C125.671 119 148.754 113.172 148.754 113.172C163.421 108.51 177.178 107.992 182.788 108.073C185.493 108.073 214.776 108.64 224.794 110.744C213.253 102.974 165.791 105.645 165.791 105.645C142.468 110.915 133.425 112.616 131.622 113.172Z" stroke="#1C74BB"/>
<path d="M138.88 36.828C138.892 37.032 138.94 37.506 139.024 38.25C139.156 39.57 139.234 40.374 139.258 40.662L139.438 41.508L139.582 42.354C139.846 41.826 139.972 41.52 139.96 41.436C139.96 41.352 140.062 41.04 140.266 40.5C140.554 39.984 140.74 39.528 140.824 39.132C140.836 39.06 140.902 38.886 141.022 38.61C140.986 38.574 141.016 38.46 141.112 38.268C141.208 38.064 141.28 37.848 141.328 37.62C141.388 37.392 141.418 37.272 141.418 37.26C141.43 37.248 141.442 37.236 141.454 37.224C141.49 37.188 141.538 37.08 141.598 36.9C141.634 36.732 141.652 36.6 141.652 36.504V35.946C141.652 35.91 141.682 35.784 141.742 35.568L141.724 35.154C141.724 34.866 141.862 34.494 142.138 34.038L142.498 33.732C142.498 33.624 142.588 33.558 142.768 33.534C142.96 33.51 143.128 33.522 143.272 33.57C143.416 33.618 143.512 33.642 143.56 33.642C143.608 33.69 143.782 33.75 144.082 33.822C144.226 33.87 144.316 33.96 144.352 34.092C144.4 34.224 144.424 34.404 144.424 34.632L144.298 36.036C144.298 36.12 144.262 36.702 144.19 37.782L144.208 38.358C144.196 38.382 144.19 38.586 144.19 38.97V39.906C144.19 40.086 144.19 40.2 144.19 40.248L144.244 40.932C144.196 40.932 144.268 41.466 144.46 42.534C144.46 42.702 144.52 43.068 144.64 43.632C144.772 44.184 144.808 44.646 144.748 45.018C144.748 45.21 144.574 45.384 144.226 45.54C143.962 45.492 143.8 45.414 143.74 45.306C143.632 45.246 143.566 45.198 143.542 45.162L143.398 44.982C143.206 44.826 143.05 44.64 142.93 44.424C142.846 44.34 142.786 44.22 142.75 44.064C142.63 43.896 142.558 43.686 142.534 43.434C142.51 43.182 142.462 43.008 142.39 42.912C142.33 42.804 142.282 42.702 142.246 42.606C142.114 42.474 142.03 42.24 141.994 41.904C141.958 41.556 141.922 41.256 141.886 41.004C141.886 40.86 141.892 40.752 141.904 40.68C141.868 40.584 141.844 40.512 141.832 40.464C141.832 40.416 141.826 40.362 141.814 40.302L141.742 40.644C141.706 40.704 141.628 40.938 141.508 41.346L141.13 42.516L140.806 43.65C140.746 43.686 140.674 43.83 140.59 44.082C140.482 44.358 140.416 44.508 140.392 44.532C140.38 44.556 140.362 44.592 140.338 44.64C140.242 44.832 140.134 44.988 140.014 45.108C139.69 45.408 139.354 45.492 139.006 45.36C138.67 45.24 138.424 45 138.268 44.64C138.184 44.436 138.118 44.304 138.07 44.244C138.058 44.148 137.992 43.98 137.872 43.74C137.788 43.512 137.722 43.224 137.674 42.876C137.614 42.768 137.572 42.582 137.548 42.318C137.488 42.21 137.446 42.054 137.422 41.85C137.398 41.646 137.362 41.448 137.314 41.256C137.254 41.052 137.212 40.806 137.188 40.518C137.164 40.302 137.074 39.906 136.918 39.33C136.882 39.294 136.834 39.174 136.774 38.97C136.75 39.162 136.738 39.27 136.738 39.294C136.738 39.306 136.69 39.6 136.594 40.176C136.618 40.2 136.612 40.38 136.576 40.716C136.504 40.944 136.462 41.184 136.45 41.436C136.354 42.084 136.312 42.57 136.324 42.894C136.36 43.002 136.36 43.134 136.324 43.29C136.3 43.434 136.276 43.584 136.252 43.74C136.24 43.884 136.216 44.016 136.18 44.136V44.262C136.144 44.634 136.138 44.844 136.162 44.892C136.162 45.024 136.108 45.186 136 45.378C135.904 45.57 135.748 45.642 135.532 45.594C135.148 45.498 134.926 45.426 134.866 45.378C134.734 45.162 134.668 44.97 134.668 44.802V43.938L134.704 43.614C134.692 43.578 134.698 43.44 134.722 43.2C134.71 43.188 134.704 43.092 134.704 42.912C134.704 42.72 134.686 42.576 134.65 42.48V42.3C134.626 41.892 134.62 41.658 134.632 41.598C134.656 41.526 134.656 41.376 134.632 41.148C134.68 41.148 134.71 41.058 134.722 40.878C134.734 40.686 134.752 40.482 134.776 40.266L134.902 40.212C134.878 40.2 134.872 40.032 134.884 39.708C134.896 39.624 134.926 39.408 134.974 39.06C135.022 38.712 135.04 38.478 135.028 38.358C135.028 38.226 135.094 38.022 135.226 37.746C135.478 36.99 135.61 36.51 135.622 36.306C135.646 36.102 135.682 35.922 135.73 35.766C135.778 35.37 135.892 35.04 136.072 34.776C136.156 34.512 136.312 34.356 136.54 34.308L136.756 34.146H136.774C137.002 33.978 137.41 33.954 137.998 34.074C138.502 34.302 138.778 34.584 138.826 34.92C138.778 35.088 138.796 35.67 138.88 36.666V36.828ZM149.946 39.834C149.934 39.57 149.874 39.372 149.766 39.24C149.658 39.096 149.46 39.012 149.172 38.988C149.088 39.048 148.974 39.252 148.83 39.6C148.698 39.936 148.614 40.296 148.578 40.68C148.458 41.256 148.398 41.832 148.398 42.408C148.41 42.996 148.506 43.428 148.686 43.704C148.71 43.752 148.734 43.77 148.758 43.758C148.818 43.758 148.914 43.638 149.046 43.398C149.682 42.246 149.982 41.058 149.946 39.834ZM150.504 43.272L150.234 43.974C150.234 43.998 150.06 44.256 149.712 44.748C149.604 44.976 149.4 45.102 149.1 45.126C148.812 45.15 148.53 45.12 148.254 45.036C147.882 44.904 147.6 44.748 147.408 44.568C147.216 44.388 147.024 44.088 146.832 43.668C146.652 43.236 146.556 42.882 146.544 42.606C146.484 42.21 146.454 41.958 146.454 41.85V41.418C146.454 40.986 146.472 40.734 146.508 40.662C146.52 40.614 146.55 40.488 146.598 40.284C146.658 39.78 146.802 39.3 147.03 38.844C147.474 37.968 147.93 37.518 148.398 37.494H148.488C148.512 37.506 148.548 37.512 148.596 37.512H148.83C149.25 37.548 149.508 37.584 149.604 37.62C149.784 37.668 149.94 37.692 150.072 37.692L150.54 37.782C150.684 37.77 150.87 37.8 151.098 37.872C151.338 37.944 151.464 37.998 151.476 38.034C151.5 38.07 151.536 38.202 151.584 38.43C151.632 38.658 151.662 38.826 151.674 38.934C151.698 39.03 151.716 39.132 151.728 39.24C151.824 40.116 151.98 40.932 152.196 41.688C152.208 41.724 152.22 41.778 152.232 41.85C152.244 41.922 152.286 42.066 152.358 42.282C152.43 42.486 152.484 42.66 152.52 42.804C152.556 42.948 152.622 43.14 152.718 43.38C152.79 43.56 152.898 43.77 153.042 44.01C153.306 44.382 153.168 44.67 152.628 44.874C152.556 44.898 152.43 44.91 152.25 44.91C152.214 44.91 152.1 44.85 151.908 44.73C151.788 44.73 151.674 44.664 151.566 44.532L151.422 44.496C151.338 44.412 151.266 44.37 151.206 44.37C151.182 44.346 150.966 43.86 150.558 42.912C150.522 43.044 150.504 43.164 150.504 43.272ZM158.49 42.786L158.562 43.146L159.048 44.028C159.048 44.052 159.078 44.124 159.138 44.244C159.21 44.364 159.258 44.442 159.282 44.478C159.318 44.514 159.366 44.58 159.426 44.676C159.462 44.724 159.54 44.82 159.66 44.964C159.9 45.144 159.906 45.36 159.678 45.612C159.27 46.032 158.838 46.044 158.382 45.648C158.118 45.444 157.89 45.18 157.698 44.856C157.626 44.76 157.5 44.568 157.32 44.28L156.906 43.398L156.78 43.2C156.78 43.188 156.768 43.152 156.744 43.092C156.72 43.02 156.702 42.954 156.69 42.894C156.63 42.882 156.582 42.834 156.546 42.75C156.486 42.834 156.282 43.128 155.934 43.632C155.586 44.124 155.394 44.394 155.358 44.442C155.298 44.514 155.25 44.586 155.214 44.658C155.178 44.73 155.13 44.82 155.07 44.928C155.01 45.036 154.962 45.108 154.926 45.144C154.902 45.192 154.86 45.252 154.8 45.324C154.74 45.408 154.686 45.456 154.638 45.468C154.59 45.48 154.53 45.492 154.458 45.504C154.326 45.528 154.158 45.438 153.954 45.234C153.846 45.09 153.792 44.868 153.792 44.568C153.816 44.436 153.846 44.322 153.882 44.226C153.93 44.13 153.966 44.016 153.99 43.884C154.23 43.212 154.398 42.822 154.494 42.714C154.602 42.594 154.68 42.462 154.728 42.318C154.776 42.162 154.83 42.024 154.89 41.904C155.046 41.64 155.238 41.286 155.466 40.842L155.088 39.888C154.992 39.72 154.926 39.552 154.89 39.384C154.854 39.216 154.8 39.048 154.728 38.88C154.56 38.508 154.59 38.166 154.818 37.854C154.962 37.71 155.094 37.626 155.214 37.602C155.334 37.578 155.556 37.572 155.88 37.584C156.216 37.596 156.522 37.74 156.798 38.016C156.798 38.1 156.858 38.244 156.978 38.448C157.11 38.916 157.182 39.168 157.194 39.204C157.218 39.24 157.23 39.27 157.23 39.294L158.004 38.592C158.052 38.52 158.19 38.436 158.418 38.34L158.598 38.232C158.67 38.172 158.934 38.118 159.39 38.07C159.786 38.178 160.038 38.286 160.146 38.394C160.146 38.406 160.194 38.526 160.29 38.754C160.266 39.03 160.038 39.252 159.606 39.42L158.85 39.996C158.682 40.104 158.526 40.236 158.382 40.392L157.752 41.004C157.86 41.232 158.004 41.586 158.184 42.066C158.268 42.366 158.37 42.606 158.49 42.786ZM162.527 33.354C162.539 33.342 162.653 33.324 162.869 33.3C163.217 33.24 163.457 33.264 163.589 33.372C163.733 33.468 163.835 33.576 163.895 33.696C163.919 34.08 163.865 34.578 163.733 35.19C163.601 35.586 163.487 35.88 163.391 36.072L163.211 36.342C163.175 36.438 163.097 36.54 162.977 36.648C162.857 36.756 162.767 36.81 162.707 36.81C162.659 36.798 162.569 36.756 162.437 36.684C162.317 36.6 162.245 36.54 162.221 36.504C162.209 36.468 162.197 36.426 162.185 36.378L162.095 36.018L161.735 35.568C161.663 35.424 161.627 35.28 161.627 35.136C161.591 34.8 161.633 34.542 161.753 34.362C161.753 34.338 161.771 34.278 161.807 34.182C161.867 33.918 162.107 33.642 162.527 33.354ZM161.987 41.436C161.987 41.328 162.005 41.184 162.041 41.004C162.089 40.812 162.101 40.68 162.077 40.608C162.065 40.536 162.065 40.332 162.077 39.996C162.113 39.852 162.119 39.69 162.095 39.51C162.011 39.246 161.987 39.054 162.023 38.934C162.059 38.814 162.137 38.682 162.257 38.538C162.377 38.382 162.509 38.274 162.653 38.214C162.797 38.154 163.013 38.16 163.301 38.232C163.373 38.268 163.493 38.388 163.661 38.592C163.697 38.628 163.739 38.766 163.787 39.006C163.847 39.246 163.883 39.51 163.895 39.798C163.919 40.074 163.937 40.482 163.949 41.022C163.961 41.55 163.985 42.264 164.021 43.164C164.057 44.052 164.063 44.604 164.039 44.82C164.027 45.036 163.949 45.198 163.805 45.306C163.673 45.426 163.553 45.45 163.445 45.378C163.349 45.318 163.247 45.276 163.139 45.252C162.947 45.252 162.779 45.174 162.635 45.018C162.587 45.006 162.473 44.952 162.293 44.856C162.113 44.748 161.999 44.556 161.951 44.28C161.891 44.16 161.873 43.77 161.897 43.11V42.462L161.987 41.85V41.436ZM173.445 43.902C173.445 43.806 173.397 43.716 173.301 43.632C173.205 43.536 173.157 43.434 173.157 43.326C173.157 43.206 173.133 43.014 173.085 42.75C173.109 42.702 173.103 42.528 173.067 42.228C173.079 42.204 173.073 42.03 173.049 41.706C173.037 41.382 173.031 41.094 173.031 40.842L172.851 41.166C172.467 42.102 172.275 42.594 172.275 42.642L171.861 43.902L171.753 44.334C171.657 44.646 171.639 44.964 171.699 45.288C171.723 45.396 171.597 45.51 171.321 45.63C171.249 45.63 171.069 45.594 170.781 45.522C170.685 45.522 170.589 45.522 170.493 45.522C170.409 45.534 170.163 45.474 169.755 45.342C169.755 45.294 169.659 45.192 169.467 45.036L169.413 43.794C169.413 43.53 169.449 43.122 169.521 42.57V42.12L169.593 41.526L169.683 40.41V40.05C169.359 40.974 169.143 41.574 169.035 41.85C169.035 41.994 168.903 42.48 168.639 43.308C168.387 44.34 168.285 45.006 168.333 45.306C168.333 45.378 168.309 45.432 168.261 45.468C168.225 45.516 168.123 45.582 167.955 45.666C167.691 45.666 167.289 45.612 166.749 45.504L166.425 45.36C166.317 45.324 166.221 45.18 166.137 44.928C166.053 44.676 166.005 44.46 165.993 44.28C165.945 44.22 165.921 44.082 165.921 43.866L165.903 43.65C165.819 42.366 165.777 41.484 165.777 41.004C165.801 40.932 165.813 40.812 165.813 40.644V40.14C165.813 39.924 165.825 39.642 165.849 39.294C165.885 38.946 165.903 38.694 165.903 38.538L165.885 37.944C165.933 37.752 166.185 37.632 166.641 37.584C166.845 37.584 167.019 37.62 167.163 37.692C167.403 37.848 167.553 38.034 167.613 38.25C167.685 38.466 167.727 38.742 167.739 39.078C167.751 39.414 167.751 39.696 167.739 39.924C167.727 40.572 167.757 41.028 167.829 41.292C167.901 41.148 167.997 40.896 168.117 40.536C168.141 40.512 168.267 40.194 168.495 39.582L168.873 38.448C169.149 38.076 169.299 37.884 169.323 37.872C169.359 37.848 169.455 37.83 169.611 37.818C169.791 37.806 169.995 37.854 170.223 37.962C170.463 38.058 170.589 38.112 170.601 38.124C170.625 38.124 170.733 38.184 170.925 38.304C171.009 38.376 171.087 38.514 171.159 38.718C171.231 38.922 171.267 39.09 171.267 39.222C171.291 39.702 171.303 39.954 171.303 39.978V40.194C171.279 40.914 171.297 41.31 171.357 41.382C171.441 41.07 171.603 40.668 171.843 40.176L172.023 39.708L172.383 38.97C172.371 38.934 172.437 38.766 172.581 38.466L172.761 37.908C172.869 37.536 173.169 37.242 173.661 37.026C173.757 37.026 173.985 37.092 174.345 37.224C174.585 37.224 174.801 37.386 174.993 37.71C175.077 37.842 175.119 38.016 175.119 38.232C175.119 38.28 175.101 38.574 175.065 39.114V39.69C175.041 39.834 175.035 39.96 175.047 40.068L175.029 40.626V41.688C175.029 41.832 175.023 41.928 175.011 41.976L175.065 42.984C175.113 43.068 175.137 43.188 175.137 43.344C175.209 43.944 175.353 44.4 175.569 44.712L175.695 44.946C175.419 45.426 174.987 45.57 174.399 45.378C174.351 45.294 174.285 45.222 174.201 45.162C174.129 45.102 174.027 45.006 173.895 44.874C173.895 44.862 173.811 44.736 173.643 44.496C173.643 44.352 173.577 44.154 173.445 43.902ZM180.617 42.552C180.617 42.504 180.629 42.462 180.653 42.426C180.689 42.39 180.737 42.324 180.797 42.228C180.797 42.144 180.857 41.844 180.977 41.328C181.085 40.908 181.217 40.422 181.373 39.87C181.409 39.834 181.427 39.768 181.427 39.672L181.607 38.826C181.607 38.526 181.685 38.346 181.841 38.286C181.961 38.166 182.129 38.136 182.345 38.196C182.561 38.256 182.783 38.388 183.011 38.592C183.059 38.616 183.107 38.628 183.155 38.628L183.407 38.844C183.383 38.892 183.371 39.138 183.371 39.582C183.371 40.014 183.377 40.278 183.389 40.374V40.68C183.389 40.836 183.395 40.938 183.407 40.986V41.202L183.389 41.544C183.437 41.784 183.443 42.132 183.407 42.588V43.146C183.395 43.182 183.395 43.242 183.407 43.326C183.419 43.398 183.431 43.476 183.443 43.56C183.431 43.584 183.425 43.632 183.425 43.704V43.848C183.449 43.992 183.455 44.088 183.443 44.136L183.479 44.676C183.527 44.82 183.569 45.018 183.605 45.27C183.593 45.33 183.593 45.444 183.605 45.612C183.545 45.756 183.407 45.828 183.191 45.828C182.975 45.804 182.813 45.738 182.705 45.63C182.645 45.618 182.567 45.582 182.471 45.522C182.435 45.522 182.381 45.504 182.309 45.468C182.249 45.396 182.189 45.348 182.129 45.324C181.781 44.928 181.577 44.472 181.517 43.956C181.493 43.932 181.481 43.902 181.481 43.866C181.385 44.106 181.157 44.514 180.797 45.09C180.677 45.234 180.593 45.342 180.545 45.414C180.497 45.498 180.461 45.552 180.437 45.576C180.353 45.744 180.101 45.762 179.681 45.63C179.501 45.57 179.387 45.54 179.339 45.54L178.781 45.378C178.541 45.258 178.331 45.102 178.151 44.91C178.103 44.91 178.049 44.886 177.989 44.838C177.929 44.778 177.893 44.724 177.881 44.676L177.665 44.334C177.521 44.202 177.401 43.998 177.305 43.722C177.293 43.578 177.275 43.452 177.251 43.344V43.236L177.233 43.11L177.269 42.66L177.431 41.67C177.479 41.622 177.503 41.532 177.503 41.4L177.557 41.058C177.617 40.974 177.647 40.872 177.647 40.752C177.671 40.716 177.689 40.632 177.701 40.5C177.737 40.452 177.755 40.386 177.755 40.302C177.767 40.218 177.803 40.068 177.863 39.852C177.935 39.708 177.971 39.51 177.971 39.258C177.971 38.994 178.019 38.694 178.115 38.358C178.355 38.034 178.709 37.95 179.177 38.106C179.261 38.106 179.387 38.166 179.555 38.286C179.735 38.394 179.867 38.466 179.951 38.502C180.047 38.598 180.107 38.67 180.131 38.718C180.083 38.766 180.053 38.832 180.041 38.916C179.681 40.176 179.465 41.178 179.393 41.922C179.381 42.054 179.351 42.222 179.303 42.426C179.267 42.63 179.231 42.84 179.195 43.056C179.099 43.632 179.213 43.932 179.537 43.956C179.657 43.968 179.771 43.944 179.879 43.884C179.987 43.824 180.047 43.746 180.059 43.65C180.395 43.002 180.581 42.636 180.617 42.552ZM185.607 39.96L185.805 39.042L185.823 38.646C185.847 38.634 185.877 38.556 185.913 38.412C185.973 37.968 186.219 37.746 186.651 37.746C186.879 37.758 187.125 37.824 187.389 37.944C187.485 37.944 187.557 37.986 187.605 38.07C187.665 38.082 187.719 38.118 187.767 38.178C187.815 38.238 187.821 38.322 187.785 38.43C187.749 38.526 187.725 38.61 187.713 38.682C187.713 38.742 187.683 38.952 187.623 39.312C187.455 40.212 187.383 40.818 187.407 41.13L188.379 39.654L188.739 39.006C188.943 38.898 189.129 38.826 189.297 38.79C189.381 38.79 189.477 38.808 189.585 38.844C189.933 38.892 190.107 38.94 190.107 38.988L190.323 39.132C190.467 39.3 190.539 39.438 190.539 39.546C190.551 39.654 190.539 39.762 190.503 39.87C190.479 39.966 190.443 40.092 190.395 40.248C190.395 40.26 190.269 40.944 190.017 42.3L190.737 40.752L190.917 40.518C190.917 40.41 191.037 40.182 191.277 39.834L191.457 39.51C191.457 39.474 191.499 39.414 191.583 39.33C191.619 39.33 191.655 39.276 191.691 39.168C191.847 38.928 191.991 38.778 192.123 38.718C192.327 38.646 192.579 38.634 192.879 38.682L193.113 38.79C193.161 38.886 193.197 38.94 193.221 38.952H193.275C193.419 39.084 193.473 39.234 193.437 39.402C193.389 39.63 193.365 39.78 193.365 39.852L193.167 41.256C193.143 41.28 193.131 41.316 193.131 41.364C193.107 41.388 193.071 41.712 193.023 42.336C192.987 42.96 192.969 43.572 192.969 44.172L192.987 44.388L193.077 44.694L193.203 44.982C193.227 45.126 193.191 45.246 193.095 45.342C193.011 45.45 192.903 45.504 192.771 45.504C191.955 45.48 191.511 45.222 191.439 44.73C191.403 44.67 191.385 44.604 191.385 44.532C191.385 44.46 191.361 44.352 191.313 44.208V44.01L191.349 43.74C191.313 43.74 191.295 43.548 191.295 43.164C191.295 42.768 191.307 42.54 191.331 42.48C191.379 42.276 191.403 42.06 191.403 41.832C191.367 41.88 191.307 41.952 191.223 42.048C191.055 42.24 190.947 42.384 190.899 42.48L190.557 43.2C190.293 43.8 190.095 44.184 189.963 44.352C189.831 44.52 189.615 44.598 189.314 44.586C189.015 44.574 188.829 44.532 188.757 44.46C188.661 44.412 188.583 44.376 188.523 44.352C188.475 44.316 188.457 44.178 188.469 43.938V43.758L188.703 42.282C188.775 42.018 188.811 41.862 188.811 41.814L188.883 41.382V41.04L188.703 41.292L188.541 41.616C188.493 41.664 188.469 41.724 188.469 41.796C188.409 41.832 188.361 41.898 188.325 41.994L187.623 43.416C187.419 43.836 187.305 44.154 187.281 44.37C187.209 44.49 187.119 44.628 187.011 44.784C186.915 44.94 186.807 45.012 186.687 45C186.579 44.976 186.501 44.946 186.453 44.91C186.405 44.874 186.387 44.826 186.399 44.766C186.255 44.826 186.141 44.778 186.057 44.622L185.625 44.064C185.577 44.028 185.553 43.962 185.553 43.866C185.589 43.722 185.589 43.602 185.553 43.506C185.517 43.41 185.505 43.332 185.517 43.272C185.493 43.164 185.481 43.014 185.481 42.822C185.481 42.594 185.463 42.426 185.427 42.318C185.427 42.222 185.439 42.126 185.463 42.03V41.85C185.439 41.322 185.475 41.01 185.571 40.914C185.499 40.806 185.505 40.56 185.589 40.176L185.607 39.96ZM121.237 57L120.957 61.76C121.09 61.68 121.623 61.6267 122.557 61.6C123.49 61.5467 124.103 61.5467 124.397 61.6L125.877 62.28C126.25 62.52 126.69 62.9333 127.197 63.52C127.517 64.2133 127.13 64.7467 126.037 65.12C124.997 65.28 124.33 65.36 124.037 65.36L120.877 65.52V67.36C121.037 70.64 121.117 72.5467 121.117 73.08C121.25 73.88 121.317 74.36 121.317 74.52V75.4C121.317 75.9067 121.25 76.2267 121.117 76.36C120.797 76.76 120.597 76.9733 120.517 77C119.423 77.4267 118.263 77.16 117.037 76.2L116.397 75.36C116.397 75.2533 116.317 74.8533 116.157 74.16C116.183 74.08 116.077 73.64 115.837 72.84C115.837 72.68 115.863 72.48 115.917 72.24C115.997 72 116.037 71.7333 116.037 71.44C116.037 71.1467 115.97 70.84 115.837 70.52C115.837 70.1733 115.81 69.8667 115.757 69.6V69.2C115.81 68.9067 115.837 68.6 115.837 68.28C115.863 67.9333 115.903 67.6 115.957 67.28C116.037 66.9333 116.05 66.6133 115.997 66.32V66.2C115.623 66.0133 115.343 65.9333 115.157 65.96C114.997 65.9867 114.81 65.9067 114.597 65.72C114.41 65.5067 114.303 65.3067 114.277 65.12C114.25 64.9333 114.53 64.56 115.117 64C115.17 63.8933 115.49 63.7067 116.077 63.44V62.64L116.277 60.4C116.197 59.68 116.197 59.1333 116.277 58.76C116.357 58.3867 116.37 58.08 116.317 57.84L116.557 56.96C115.223 57.2 114.263 57.2533 113.677 57.12C113.17 56.88 112.903 56.4933 112.877 55.96C112.85 55.9333 112.917 55.5467 113.077 54.8C112.997 54.4267 113.317 53.96 114.037 53.4C114.623 53.1333 115.183 52.9467 115.717 52.84C116.73 52.4933 117.637 52.2667 118.437 52.16C120.01 51.8933 121.277 51.6667 122.237 51.48L124.117 50.8C124.543 50.56 124.837 50.4533 124.997 50.48C125.183 50.5067 125.45 50.4533 125.797 50.32C125.85 50.1867 126.157 50.0667 126.717 49.96C127.863 49.7467 128.53 49.8667 128.717 50.32C128.957 50.3733 129.277 50.56 129.677 50.88C129.757 50.9067 130.063 51.4267 130.597 52.44C130.677 52.6533 130.637 52.88 130.477 53.12C130.317 53.3333 130.063 53.4533 129.717 53.48L128.637 53.88C128.317 53.9067 127.863 54.0533 127.277 54.32C126.183 54.6133 125.57 54.76 125.437 54.76C125.303 54.76 125.17 54.7733 125.037 54.8C124.637 54.88 124.21 54.9867 123.757 55.12C123.303 55.2533 122.917 55.32 122.597 55.32C121.85 55.48 121.437 55.6667 121.357 55.88C121.33 55.9333 121.317 56.0133 121.317 56.12L121.237 56.6V57ZM134.656 51.92C136.443 51.92 137.696 52.28 138.416 53C138.416 53.4533 138.11 54.3733 137.496 55.76C137.39 56.2133 137.216 56.5733 136.976 56.84L136.456 57.36C136.323 57.44 136.19 57.48 136.056 57.48C135.096 57.72 134.35 57.5333 133.816 56.92C133.71 56.76 133.576 56.64 133.416 56.56C133.283 56.48 133.176 56.24 133.096 55.84C132.856 55.4933 132.736 55.2267 132.736 55.04C132.683 53.3867 133.283 52.3467 134.536 51.92H134.656ZM134.336 61.36C134.603 61.2267 135.23 61.36 136.216 61.76C136.323 61.8667 136.483 61.9733 136.696 62.08L137.336 62.6C137.443 62.7067 137.496 62.88 137.496 63.12V66.64C137.496 67.1733 137.47 67.6533 137.416 68.08V68.32C137.336 69.4133 137.403 71.88 137.616 75.72C137.696 76.4667 137.523 76.92 137.096 77.08C136.643 77.08 136.35 77.0133 136.216 76.88C136.11 76.8267 136.016 76.8 135.936 76.8H135.656L135.416 76.88C135.336 76.88 135.19 76.8267 134.976 76.72C134.763 76.5867 134.616 76.4533 134.536 76.32C134.483 76.1867 134.376 76.1067 134.216 76.08C133.923 75.9733 133.763 75.7733 133.736 75.48C133.363 74.76 133.163 74.3333 133.136 74.2C133.136 74.0667 133.096 73.92 133.016 73.76L132.816 70.28C132.816 69.88 132.843 69.5733 132.896 69.36V68.4C132.923 68.1067 132.95 67.5733 132.976 66.8C133.003 66 133.043 65.36 133.096 64.88C133.043 64.1867 133.016 63.72 133.016 63.48C133.016 63.24 133.03 63.0667 133.056 62.96C132.763 62.6667 132.776 62.2667 133.096 61.76C133.443 61.4933 133.776 61.36 134.096 61.36H134.336ZM142.839 61.48C143.559 60.6 144.545 60.1333 145.799 60.08C147.852 60 149.372 60.5067 150.359 61.6C151.372 62.6933 151.905 63.7733 151.959 64.84C152.039 65.9067 151.772 66.48 151.159 66.56C150.279 66.5867 149.705 66.4667 149.439 66.2C149.199 66.2267 148.892 66.0533 148.519 65.68C148.359 65.6 148.145 65.2933 147.879 64.76L147.439 63.76C147.225 63.28 146.959 63.0133 146.639 62.96C146.239 63.12 146.039 63.52 146.039 64.16C146.145 65.4133 146.745 66.6133 147.839 67.76C147.839 67.76 147.852 67.8 147.879 67.88C147.932 67.9333 148.132 68.1467 148.479 68.52C150.585 70.84 151.679 72.7067 151.759 74.12C151.759 75.0267 151.572 75.6267 151.199 75.92C150.052 77.28 148.559 77.9867 146.719 78.04C144.879 78.0933 143.359 77.52 142.159 76.32C141.839 76 141.679 75.6933 141.679 75.4C141.519 74.8933 141.465 74.56 141.519 74.4C141.439 73.6533 141.439 73.0933 141.519 72.72C141.679 71.8667 142.305 71.4267 143.399 71.4C143.799 71.4 144.052 71.64 144.159 72.12C144.505 73.48 144.825 74.3733 145.119 74.8C145.439 75.2267 145.945 75.4267 146.639 75.4C147.519 75.3467 147.932 74.8533 147.879 73.92C147.852 72.9867 147.412 72.12 146.559 71.32C146.292 71 146.025 70.76 145.759 70.6C145.519 70.4133 145.359 70.28 145.279 70.2C145.252 70.12 145.185 70.04 145.079 69.96C144.545 69.5333 143.865 68.8267 143.039 67.84C142.239 66.8533 141.812 65.9333 141.759 65.08C141.652 63.56 142.012 62.36 142.839 61.48ZM155.673 53.2L155.753 52.68C155.753 52.6 155.779 52.48 155.833 52.32C155.939 52.2933 155.993 52.2 155.993 52.04C155.993 51.88 156.019 51.7333 156.073 51.6C156.046 51.44 156.153 51.1867 156.393 50.84C156.633 50.4667 156.873 50.1867 157.113 50C157.273 50 157.379 49.9733 157.433 49.92H157.913C158.659 49.92 159.099 49.9733 159.233 50.08C159.526 50.2133 159.673 50.6933 159.673 51.52C159.699 51.6 159.713 51.8 159.713 52.12L159.673 52.4V52.72C159.673 52.8533 159.673 53 159.673 53.16C159.699 53.32 159.699 53.48 159.673 53.64V54.72C159.619 56.4267 159.593 57.56 159.593 58.12C159.593 58.6533 159.579 58.9467 159.553 59C159.579 59.1333 159.593 60.0933 159.593 61.88C159.673 63.2133 159.713 64.48 159.713 65.68V66.6C159.713 67.2133 159.699 67.64 159.673 67.88L159.713 68.24C159.659 68.2933 159.633 68.4533 159.633 68.72V69.28L160.073 68.12C160.073 67.9067 160.193 67.6 160.433 67.2L160.593 66.6C160.593 66.4933 160.699 66.2133 160.913 65.76C161.153 65.3067 161.326 64.8667 161.433 64.44L161.713 63.96C161.713 63.6933 161.766 63.5067 161.873 63.4L161.913 63.16C162.126 62.7867 162.233 62.5467 162.233 62.44L162.273 61.84C162.273 61.7867 162.299 61.72 162.353 61.64C162.539 61.4267 162.673 61.16 162.753 60.84C163.419 59.96 164.326 59.6 165.473 59.76C166.859 59.9467 167.553 60.8267 167.553 62.4V63.6C167.633 64 167.619 64.3067 167.513 64.52L167.553 65.2V65.96L167.673 68.24V69.08C167.673 69.2667 167.659 69.4267 167.633 69.56C167.659 69.64 167.673 69.8133 167.673 70.08C167.619 70.1067 167.619 70.2267 167.673 70.44C167.726 70.6267 167.753 70.7733 167.753 70.88C167.753 70.96 167.779 71.3333 167.833 72C167.833 73.5733 168.006 75.04 168.353 76.4L168.393 76.68V76.92C168.633 77.5867 168.593 78.0267 168.273 78.24C167.979 78.4267 167.713 78.4 167.473 78.16C167.393 78.1867 167.086 78.1733 166.553 78.12C166.259 78.28 165.739 78.0667 164.993 77.48C164.833 77.3733 164.686 77.24 164.553 77.08C164.526 77.0267 164.486 76.92 164.433 76.76C164.326 76.3867 164.259 76.0933 164.233 75.88C163.992 75.4533 163.872 75.1867 163.872 75.08L163.633 73.16C163.739 73.1333 163.713 72.8 163.553 72.16C163.393 71.52 163.286 70.6533 163.233 69.56V69.2C163.233 68.6933 163.246 68.44 163.273 68.44C163.086 68.44 162.859 69.1067 162.593 70.44L162.313 71.76V72.16C162.206 72.3733 162.086 72.5333 161.953 72.64L160.713 77.76C160.766 77.9733 160.739 78.12 160.633 78.2C160.526 78.3067 160.326 78.3733 160.033 78.4H158.993C158.886 78.5067 158.726 78.56 158.513 78.56C157.846 78.56 157.473 78.3333 157.393 77.88C157.099 77.8 156.953 77.64 156.953 77.4V77.16C156.633 76.52 156.459 76.1067 156.433 75.92C156.433 75.7333 156.433 75.56 156.433 75.4C156.379 75.2933 156.353 75.1467 156.353 74.96C156.299 74.9067 156.273 74.76 156.273 74.52C156.139 74.1733 156.099 73.6133 156.153 72.84L156.113 72.36C156.139 71.9867 156.153 71.7067 156.153 71.52V70.8L156.193 70.44V70C156.193 69.8933 156.166 69.7067 156.113 69.44C156.193 69.3067 156.206 69.1467 156.153 68.96V67.96C156.153 67.4533 156.139 67.1467 156.113 67.04V65.84C156.086 65.4667 156.086 65.2133 156.113 65.08L155.952 63.64C156.006 63.1333 155.979 62.64 155.873 62.16C155.899 62.0533 155.846 61.4667 155.713 60.4C155.606 59.3333 155.579 58.7067 155.633 58.52C155.633 58.3333 155.606 58.1333 155.553 57.92C155.526 57.7067 155.553 57.5467 155.633 57.44C155.633 57.4133 155.606 57.24 155.553 56.92C155.499 56.6267 155.499 56.3067 155.553 55.96C155.499 55.8267 155.499 55.6133 155.553 55.32C155.633 55.24 155.646 55.08 155.593 54.84V54.16L155.753 53.76C155.699 53.6 155.673 53.4133 155.673 53.2ZM174.228 51.12C174.254 51.0933 174.508 51.0533 174.988 51C175.761 50.8667 176.294 50.92 176.588 51.16C176.908 51.3733 177.134 51.6133 177.268 51.88C177.321 52.7333 177.201 53.84 176.908 55.2C176.614 56.08 176.361 56.7333 176.148 57.16L175.748 57.76C175.668 57.9733 175.494 58.2 175.228 58.44C174.961 58.68 174.761 58.8 174.628 58.8C174.521 58.7733 174.321 58.68 174.028 58.52C173.761 58.3333 173.601 58.2 173.548 58.12C173.521 58.04 173.494 57.9467 173.468 57.84L173.268 57.04L172.468 56.04C172.308 55.72 172.228 55.4 172.228 55.08C172.148 54.3333 172.241 53.76 172.508 53.36C172.508 53.3067 172.548 53.1733 172.628 52.96C172.761 52.3733 173.294 51.76 174.228 51.12ZM173.028 69.08C173.028 68.84 173.068 68.52 173.148 68.12C173.254 67.6933 173.281 67.4 173.228 67.24C173.201 67.08 173.201 66.6267 173.228 65.88C173.308 65.56 173.321 65.2 173.268 64.8C173.081 64.2133 173.028 63.7867 173.108 63.52C173.188 63.2533 173.361 62.96 173.628 62.64C173.894 62.2933 174.188 62.0533 174.508 61.92C174.828 61.7867 175.308 61.8 175.948 61.96C176.108 62.04 176.374 62.3067 176.748 62.76C176.828 62.84 176.921 63.1467 177.028 63.68C177.161 64.2133 177.241 64.8 177.268 65.44C177.321 66.0533 177.361 66.96 177.388 68.16C177.414 69.3333 177.468 70.92 177.548 72.92C177.628 74.8933 177.641 76.12 177.588 76.6C177.561 77.08 177.388 77.44 177.068 77.68C176.774 77.9467 176.508 78 176.268 77.84C176.054 77.7067 175.828 77.6133 175.588 77.56C175.161 77.56 174.788 77.3867 174.468 77.04C174.361 77.0133 174.108 76.8933 173.708 76.68C173.308 76.44 173.054 76.0133 172.948 75.4C172.814 75.1333 172.774 74.2667 172.827 72.8V71.36L173.028 70V69.08ZM185.37 72.28C185.61 71.72 185.863 71.0667 186.13 70.32L187.01 68.08L187.37 67.4C181.957 73.8 182.01 73.7333 187.53 67.2L188.57 65.04C188.65 64.96 188.717 64.7867 188.77 64.52L189.81 62.96L190.61 62.24C190.77 62.16 190.943 62.0267 191.13 61.84C191.183 61.8933 191.397 61.84 191.77 61.68C192.01 61.68 192.49 61.72 193.21 61.8L194.01 62.08L195.81 63.16C196.183 63.5333 196.343 63.9333 196.29 64.36C196.263 64.68 196.117 65.56 195.85 67C195.637 68.1467 195.33 69.4667 194.93 70.96C194.717 72.16 194.65 73.0267 194.73 73.56C194.81 74.0933 194.85 74.4 194.85 74.48C194.903 74.64 194.97 74.8667 195.05 75.16C195.157 75.4533 195.183 75.6133 195.13 75.64C195.317 75.6667 195.41 75.8 195.41 76.04C195.623 76.6 195.69 76.9733 195.61 77.16C195.557 77.3733 195.383 77.6 195.09 77.84C194.823 78.08 194.33 78.2 193.61 78.2C193.183 78.1467 192.837 78.12 192.57 78.12C192.33 78.12 192.023 78.0267 191.65 77.84C190.877 77.28 190.437 76.7067 190.33 76.12C190.197 75.7467 190.117 75.4667 190.09 75.28C190.063 75.0933 190.05 74.96 190.05 74.88C189.917 74.08 189.93 73.2533 190.09 72.4C190.117 72.08 190.237 71.4267 190.45 70.44C190.663 69.4267 190.877 68.6267 191.09 68.04C191.09 67.4533 191.077 67.1467 191.05 67.12L189.49 70.16C189.33 70.5867 189.183 70.9067 189.05 71.12C188.917 71.2533 188.85 71.4133 188.85 71.6C188.637 71.8133 188.437 72.24 188.25 72.88C188.25 73.0667 188.237 73.2 188.21 73.28C188.183 73.36 188.077 73.56 187.89 73.88C187.73 74.1733 187.61 74.4533 187.53 74.72C187.477 74.9867 187.317 75.28 187.05 75.6C187.05 75.7067 186.877 76.2533 186.53 77.24C186.503 77.3467 186.223 77.44 185.69 77.52L184.93 77.44C184.743 77.3867 184.303 77.2533 183.61 77.04C182.917 76.8267 182.53 76.72 182.45 76.72C182.397 76.72 182.343 76.6933 182.29 76.64C181.837 76.5333 181.557 76.16 181.45 75.52V74.88C181.583 74.72 181.597 74.4133 181.49 73.96C181.543 73.6933 181.583 73.3867 181.61 73.04C181.53 72.9867 181.517 72.8933 181.57 72.76C181.623 71.9067 181.65 71.3067 181.65 70.96V70C181.703 69.12 181.77 68.1733 181.85 67.16C181.93 66.1467 181.97 65.4933 181.97 65.2V64.4C181.917 64.2667 181.903 63.96 181.93 63.48C181.877 62.9733 181.81 62.6667 181.73 62.56C181.65 62.4267 181.623 62.24 181.65 62L181.93 61.32C182.357 60.9733 183.077 60.9067 184.09 61.12C184.543 61.2 185.17 61.4667 185.97 61.92C186.023 62 186.157 62.1733 186.37 62.44C186.53 62.44 186.623 62.6667 186.65 63.12C186.623 63.36 186.61 63.56 186.61 63.72C186.583 63.7467 186.437 64.36 186.17 65.56C185.583 69.2667 185.29 71.28 185.29 71.6C185.29 71.92 185.317 72.1467 185.37 72.28ZM204.323 69.2L204.403 70.76L204.683 71.52L205.083 72.32C205.163 72.88 205.429 73.2133 205.883 73.32C206.203 73.3733 206.509 73.2 206.803 72.8C206.963 72.6667 207.083 72.5733 207.163 72.52C207.323 72.3867 207.403 72.0933 207.403 71.64C207.403 71.16 207.443 70.7733 207.523 70.48C207.496 70.3467 207.509 69.88 207.563 69.08C207.643 68.2533 207.709 67.6267 207.763 67.2C207.843 66.7467 207.869 66.44 207.843 66.28C207.656 66.04 207.483 65.5467 207.323 64.8C206.789 64.2667 206.429 63.9733 206.243 63.92C205.656 63.7067 205.296 63.68 205.163 63.84C204.976 64.0267 204.776 64.9067 204.563 66.48C204.403 66.7467 204.323 67.0933 204.323 67.52C204.349 67.92 204.349 68.2267 204.323 68.44V69.2ZM211.763 68.12C211.869 69.4533 211.923 70.4933 211.923 71.24L211.963 71.76L211.883 74.2C211.883 74.5733 211.869 74.92 211.843 75.24V75.88L211.683 76.92V77.32C211.683 78.3067 211.229 79.7067 210.323 81.52C210.003 82.1867 209.509 82.8667 208.843 83.56C207.723 84.76 206.349 85.3867 204.723 85.44C203.363 85.44 202.363 85.16 201.723 84.6L201.323 84.4C201.003 84.24 200.643 83.7333 200.243 82.88C200.243 82.8 200.176 82.6267 200.043 82.36C200.043 81.9867 200.123 81.6933 200.283 81.48C200.389 81.2667 200.749 81.08 201.363 80.92C201.629 80.8667 202.123 81.1333 202.843 81.72C203.376 82.3067 204.003 82.6133 204.723 82.64C205.469 82.7467 206.043 82.4 206.443 81.6C206.843 80.8 207.149 79.7333 207.363 78.4C207.469 77.8933 207.523 77.32 207.523 76.68C207.523 76.04 207.496 75.6133 207.443 75.4C206.723 75.7733 206.083 75.9333 205.523 75.88H205.163C204.949 75.9333 204.629 75.9333 204.203 75.88C203.776 75.8 203.376 75.6267 203.003 75.36L202.243 74.84C202.269 74.8667 202.256 74.88 202.203 74.88L202.003 74.76L201.443 74.32C201.203 74.1867 201.083 73.9333 201.083 73.56C200.896 73.4533 200.763 73.32 200.683 73.16C200.469 73.08 200.363 72.8933 200.363 72.6L200.163 71.8C200.163 71.6667 200.096 71.3333 199.963 70.8C199.829 70.5867 199.789 70.3733 199.843 70.16C199.923 69.9467 199.963 69.7733 199.963 69.64L200.083 68.28V68C200.003 67.92 200.003 67.6667 200.083 67.24C200.163 67.08 200.203 66.96 200.203 66.88C200.363 66.0267 200.483 65.4933 200.563 65.28C200.643 65.04 200.696 64.7733 200.723 64.48C200.776 64.1867 200.883 63.92 201.043 63.68L201.443 62.76C201.603 62.4667 202.029 62.0533 202.723 61.52C202.989 61.2533 203.323 61.08 203.723 61L204.843 61.08L206.003 61.36C206.029 61.36 206.523 61.56 207.483 61.96C207.483 61.4533 207.736 61.0267 208.243 60.68C208.456 60.4667 208.923 60.4533 209.643 60.64H210.003C210.296 60.6133 210.616 60.7333 210.963 61C211.123 61.1867 211.296 61.6133 211.483 62.28C211.669 64.76 211.763 66.7067 211.763 68.12Z" fill="black"/>
</svg>
