<svg width="31" height="32" viewBox="0 0 31 32" fill="none" xmlns="http://www.w3.org/2000/svg">
<path d="M24.555 13.2735C24.555 15.9823 23.6755 18.4845 22.1939 20.5146L29.6666 27.9918C30.4045 28.7295 30.4045 29.9275 29.6666 30.6652C28.9288 31.4029 27.7306 31.4029 26.9928 30.6652L19.52 23.188C17.4895 24.6752 14.9868 25.5486 12.2775 25.5486C5.49535 25.5486 0 20.0543 0 13.2735C0 6.49269 5.49535 0.998413 12.2775 0.998413C19.0596 0.998413 24.555 6.49269 24.555 13.2735ZM12.2775 21.7716C13.3937 21.7716 14.499 21.5518 15.5302 21.1248C16.5615 20.6977 17.4985 20.0717 18.2877 19.2826C19.077 18.4935 19.7031 17.5566 20.1303 16.5256C20.5574 15.4946 20.7773 14.3895 20.7773 13.2735C20.7773 12.1575 20.5574 11.0524 20.1303 10.0214C19.7031 8.99036 19.077 8.05353 18.2877 7.26441C17.4985 6.47528 16.5615 5.84932 15.5302 5.42224C14.499 4.99517 13.3937 4.77536 12.2775 4.77536C11.1613 4.77536 10.056 4.99517 9.02475 5.42224C7.99351 5.84932 7.0565 6.47528 6.26722 7.26441C5.47794 8.05353 4.85185 8.99036 4.42469 10.0214C3.99754 11.0524 3.77769 12.1575 3.77769 13.2735C3.77769 14.3895 3.99754 15.4946 4.42469 16.5256C4.85185 17.5566 5.47794 18.4935 6.26722 19.2826C7.0565 20.0717 7.99351 20.6977 9.02475 21.1248C10.056 21.5518 11.1613 21.7716 12.2775 21.7716Z" fill="white"/>
</svg>
