<svg width="24" height="24" viewBox="0 0 24 24" fill="none" xmlns="http://www.w3.org/2000/svg">
<path d="M20.4832 3.51161C18.8046 1.83436 16.6662 0.692357 14.3384 0.230001C12.0106 -0.232356 9.59792 0.00570495 7.40545 0.914079C5.21298 1.82245 3.33919 3.36034 2.02103 5.33328C0.70288 7.30621 -0.000444302 9.62559 2.10574e-07 11.9981C-1.92539e-07 15.1802 1.26408 18.232 3.51432 20.4826C5.76456 22.7332 8.81676 23.9984 11.9999 24C13.5751 24.0007 15.1352 23.6929 16.592 23.094C18.0442 22.4812 19.3651 21.5954 20.4832 20.4846C21.5981 19.3702 22.4826 18.0472 23.086 16.591C23.6894 15.1349 24 13.5742 24 11.9981C24 10.422 23.6894 8.86129 23.086 7.40517C22.4826 5.94904 21.5981 4.62601 20.4832 3.51161ZM19.6373 19.6269C17.9093 21.3617 15.6419 22.4567 13.2083 22.7316V14.8068H15.4802C15.8007 14.8068 16.1081 14.6795 16.3347 14.453C16.5613 14.2264 16.6887 13.9192 16.6887 13.5988C16.6887 13.2784 16.5613 12.9711 16.3347 12.7445C16.1081 12.518 15.8007 12.3907 15.4802 12.3907H13.2083V9.08069C13.2083 8.76029 13.3356 8.45302 13.5623 8.22647C13.7889 7.99992 14.0963 7.87264 14.4168 7.87264H15.8669C16.1874 7.87264 16.4948 7.74537 16.7214 7.51882C16.948 7.29226 17.0754 6.98499 17.0754 6.6646C17.0754 6.34421 16.948 6.03694 16.7214 5.81039C16.4948 5.58384 16.1874 5.45656 15.8669 5.45656H13.8125C13.0113 5.45656 12.2429 5.77475 11.6763 6.34113C11.1097 6.90751 10.7914 7.67568 10.7914 8.47666V12.3907H8.53164C8.21113 12.3907 7.90376 12.518 7.67713 12.7445C7.45051 12.9711 7.32319 13.2784 7.32319 13.5988C7.32319 13.9192 7.45051 14.2264 7.67713 14.453C7.90376 14.6795 8.21113 14.8068 8.53164 14.8068H10.7914V22.7316C8.54721 22.4756 6.44015 21.5213 4.76787 20.0034C3.09558 18.4855 1.94259 16.4808 1.47177 14.2724C1.00094 12.0639 1.23607 9.76345 2.14394 7.69585C3.05182 5.62826 4.58655 3.89804 6.53135 2.7496C8.47616 1.60117 10.7327 1.09255 12.9824 1.2956C15.232 1.49865 17.361 2.40311 19.0685 3.88121C20.7761 5.35931 21.976 7.33635 22.4987 9.53307C23.0214 11.7298 22.8406 14.0352 21.9816 16.1236C21.4346 17.4321 20.6384 18.622 19.6373 19.6269Z" fill="white"/>
</svg>
