<svg width="24" height="24" viewBox="0 0 24 24" fill="none" xmlns="http://www.w3.org/2000/svg">
<path d="M12 6.58824C10.9297 6.58824 9.88334 6.90563 8.99339 7.50028C8.10343 8.09493 7.40978 8.94014 7.00018 9.92901C6.59058 10.9179 6.48341 12.006 6.69222 13.0558C6.90104 14.1056 7.41646 15.0698 8.1733 15.8267C8.93015 16.5835 9.89444 17.099 10.9442 17.3078C11.994 17.5166 13.0821 17.4094 14.071 16.9998C15.0599 16.5902 15.9051 15.8966 16.4997 15.0066C17.0944 14.1167 17.4118 13.0703 17.4118 12C17.4099 10.5653 16.8391 9.18987 15.8246 8.17537C14.8101 7.16087 13.4347 6.5901 12 6.58824ZM12 16C11.2089 16 10.4355 15.7654 9.77772 15.3259C9.11992 14.8864 8.60723 14.2616 8.30448 13.5307C8.00173 12.7998 7.92252 11.9956 8.07686 11.2196C8.2312 10.4437 8.61216 9.73098 9.17157 9.17157C9.73098 8.61216 10.4437 8.2312 11.2196 8.07686C11.9956 7.92252 12.7998 8.00173 13.5307 8.30448C14.2616 8.60723 14.8864 9.11992 15.3259 9.77772C15.7654 10.4355 16 11.2089 16 12C16 13.0609 15.5786 14.0783 14.8284 14.8284C14.0783 15.5786 13.0609 16 12 16ZM17.6471 0H6.35294C4.66861 0.00186837 3.0538 0.671794 1.8628 1.8628C0.671794 3.0538 0.00186837 4.66861 0 6.35294V17.6471C0.00186837 19.3314 0.671794 20.9462 1.8628 22.1372C3.0538 23.3282 4.66861 23.9981 6.35294 24H17.6471C19.3314 23.9981 20.9462 23.3282 22.1372 22.1372C23.3282 20.9462 23.9981 19.3314 24 17.6471V6.35294C23.9981 4.66861 23.3282 3.0538 22.1372 1.8628C20.9462 0.671794 19.3314 0.00186837 17.6471 0ZM22.5882 17.6471C22.5882 18.9575 22.0676 20.2143 21.141 21.141C20.2143 22.0676 18.9575 22.5882 17.6471 22.5882H6.35294C5.04246 22.5882 3.78565 22.0676 2.859 21.141C1.93235 20.2143 1.41176 18.9575 1.41176 17.6471V6.35294C1.41176 5.04246 1.93235 3.78565 2.859 2.859C3.78565 1.93235 5.04246 1.41176 6.35294 1.41176H17.6471C18.9575 1.41176 20.2143 1.93235 21.141 2.859C22.0676 3.78565 22.5882 5.04246 22.5882 6.35294V17.6471ZM19.2941 5.88235C19.2941 6.11504 19.2251 6.3425 19.0958 6.53596C18.9666 6.72943 18.7828 6.88023 18.5679 6.96927C18.3529 7.05831 18.1163 7.08161 17.8881 7.03622C17.6599 6.99082 17.4503 6.87878 17.2858 6.71424C17.1212 6.54971 17.0092 6.34008 16.9638 6.11187C16.9184 5.88366 16.9417 5.64711 17.0307 5.43214C17.1198 5.21716 17.2706 5.03343 17.464 4.90415C17.6575 4.77488 17.885 4.70588 18.1176 4.70588C18.4297 4.70588 18.7289 4.82983 18.9495 5.05046C19.1702 5.27109 19.2941 5.57033 19.2941 5.88235Z" fill="white"/>
</svg>
