<svg width="5" height="11" viewBox="0 0 5 11" fill="none" xmlns="http://www.w3.org/2000/svg">
<path fill-rule="evenodd" clip-rule="evenodd" d="M4.76837e-07 1.2005L4.76837e-07 10.2008C0.000191261 10.2919 0.0169755 10.3812 0.0485463 10.4591C0.0801172 10.537 0.125279 10.6005 0.179171 10.6429C0.233063 10.6852 0.293644 10.7047 0.354393 10.6993C0.415143 10.6939 0.47376 10.6638 0.523935 10.6123L4.86501 6.11214C5.045 5.92563 5.045 5.47662 4.86501 5.28961L0.523935 0.789485C0.473864 0.737396 0.415218 0.706849 0.354367 0.701165C0.293517 0.69548 0.232789 0.714875 0.178783 0.757241C0.124777 0.799607 0.0795576 0.863325 0.048038 0.941471C0.0165184 1.01962 -9.55556e-05 1.1092 4.76837e-07 1.2005ZM0.667858 9.24672L4.08829 5.70062L0.667858 2.15452L0.667858 9.24672Z" fill="white"/>
<path d="M4.08829 5.70062L0.667858 9.24672L0.667858 2.15452L4.08829 5.70062Z" fill="white"/>
</svg>
