<svg width="71" height="68" viewBox="0 0 71 68" fill="none" xmlns="http://www.w3.org/2000/svg">
<path d="M37.6181 1.03658C45.6695 1.34354 52.0976 4.78669 56.1608 8.09496C57.8429 9.46457 56.6533 11.7307 54.496 11.5039C54.0996 11.4622 53.7184 11.3246 53.3813 11.112C46.416 6.71896 40.0011 5.91727 37.6181 6.07595C24.5984 5.29567 14.8335 13.2286 11.5786 17.2926C6.11031 23.1448 4.63473 33.2777 4.58048 37.6127C6.14284 55.9495 20.6382 64.8686 27.6905 67.0361C16.461 64.2726 1.00003 48.5265 1 33.7112C0.999986 25.7049 3.38903 20.3404 5.34198 16.7641C7.29493 13.1878 16.2982 0.223777 37.6181 1.03658Z" fill="#E7F5F9" stroke="white"/>
<path d="M12.6655 34.4833C10.5498 41.7985 13.6399 51.4845 15.9726 55.3318C4.90583 26.8837 40.7101 16.805 55.8455 17.4552C67.9539 17.9754 63.3861 24.4995 59.5887 27.6965C53.5996 34.0689 46.135 30.3517 43.1513 27.6965C47.4478 35.8896 54.5978 34.5783 57.6358 32.8985C64.5362 30.5576 68.3228 21.6276 69.3535 17.4552C59.8491 10.6927 41.8493 14.204 34.0375 16.805L38.4316 14.3666C30.3594 10.4651 22.2655 11.874 19.2275 13.0661C21.8315 14.6267 21.291 19.2026 20.3146 21.1533C16.8969 25.3799 13.5005 31.596 12.6655 34.4833Z" fill="#E7F5F9"/>
<path d="M24.4354 57.9328C21.1805 47.3989 42.2833 38.263 53.2416 35.0117C43.8023 52.5682 35.1767 51.2678 36.9669 50.455C38.3991 49.8048 39.9506 45.1989 40.5473 42.9772C32.8657 46.8787 30.7283 52.8392 30.6198 55.3318C30.2292 63.2782 39.3539 63.3029 43.965 62.3219C40.0591 62.3219 39.5709 61.184 39.7336 56.7949C39.8638 53.2835 48.7932 46.987 53.2416 44.2777C40.7426 59.3633 51.5056 55.2234 58.4495 51.2678C64.5688 48.0166 67.943 34.6325 68.8653 28.3468C73.4222 52.1456 57.2581 65.8574 43.965 66.3859C30.1641 67.1662 25.1949 61.2924 24.4354 57.9328Z" fill="#E7F5F9"/>
<path d="M12.6655 34.4833C10.5498 41.7985 13.6399 51.4845 15.9726 55.3318C4.90583 26.8837 40.7101 16.805 55.8455 17.4552C67.9539 17.9754 63.3861 24.4995 59.5887 27.6965C53.5996 34.0689 46.135 30.3517 43.1513 27.6965C47.4478 35.8896 54.5978 34.5783 57.6358 32.8985C64.5362 30.5576 68.3228 21.6276 69.3535 17.4552C59.8491 10.6927 41.8493 14.204 34.0375 16.805L38.4316 14.3666C30.3594 10.4651 22.2655 11.874 19.2275 13.0661C21.8315 14.6267 21.291 19.2026 20.3146 21.1533C16.8969 25.3799 13.5005 31.596 12.6655 34.4833Z" stroke="white"/>
<path d="M24.4354 57.9328C21.1805 47.3989 42.2833 38.263 53.2416 35.0117C43.8023 52.5682 35.1767 51.2678 36.9669 50.455C38.3991 49.8048 39.9506 45.1989 40.5473 42.9772C32.8657 46.8787 30.7283 52.8392 30.6198 55.3318C30.2292 63.2782 39.3539 63.3029 43.965 62.3219C40.0591 62.3219 39.5709 61.184 39.7336 56.7949C39.8638 53.2835 48.7932 46.987 53.2416 44.2777C40.7426 59.3633 51.5056 55.2234 58.4495 51.2678C64.5688 48.0166 67.943 34.6325 68.8653 28.3468C73.4222 52.1456 57.2581 65.8574 43.965 66.3859C30.1641 67.1662 25.1949 61.2924 24.4354 57.9328Z" stroke="white"/>
<path d="M57.4606 22.1695C57.4606 22.9701 56.8106 23.6202 56.0076 23.6202C55.2047 23.6202 54.5547 22.9701 54.5547 22.1695C54.5547 21.3688 55.2047 20.7188 56.0076 20.7188C56.8106 20.7188 57.4606 21.3688 57.4606 22.1695Z" fill="#E7F5F9" stroke="white"/>
</svg>
