<svg width="72" height="64" viewBox="0 0 72 64" fill="none" xmlns="http://www.w3.org/2000/svg">
<path d="M2.65571 2.00004V0.333374C2.20726 0.333374 1.77718 0.508969 1.46009 0.82153C1.14299 1.13409 0.964844 1.55801 0.964844 2.00004H2.65571ZM39.8547 2.00004H41.5455C41.5455 1.55801 41.3674 1.13409 41.0503 0.82153C40.7332 0.508969 40.3031 0.333374 39.8547 0.333374V2.00004ZM39.8547 22V20.3334C39.4062 20.3334 38.9762 20.509 38.6591 20.8215C38.342 21.1341 38.1638 21.558 38.1638 22H39.8547ZM2.65571 3.66671H39.8547V0.333374H2.65571V3.66671ZM38.1638 2.00004V55.3334H41.5455V2.00004H38.1638ZM4.34657 48.6667V2.00004H0.964844V48.6667H4.34657ZM39.8547 23.6667H56.7633V20.3334H39.8547V23.6667ZM68.5993 35.3334V48.6667H71.9811V35.3334H68.5993ZM41.5455 55.3334V22H38.1638V55.3334H41.5455ZM60.3479 58.8667C59.3968 59.803 58.1075 60.329 56.7633 60.329C55.4191 60.329 54.1298 59.803 53.1787 58.8667L50.7844 61.2267C51.5695 62.0008 52.5016 62.6148 53.5275 63.0337C54.5533 63.4526 55.6529 63.6683 56.7633 63.6683C57.8737 63.6683 58.9733 63.4526 59.9991 63.0337C61.025 62.6148 61.9571 62.0008 62.7422 61.2267L60.3513 58.87L60.3479 58.8667ZM53.1787 51.8C54.1298 50.8637 55.4191 50.3378 56.7633 50.3378C58.1075 50.3378 59.3968 50.8637 60.3479 51.8L62.7422 49.44C61.9571 48.666 61.025 48.052 59.9991 47.633C58.9733 47.2141 57.8737 46.9985 56.7633 46.9985C55.6529 46.9985 54.5533 47.2141 53.5275 47.633C52.5016 48.052 51.5695 48.666 50.7844 49.44L53.1753 51.7967L53.1787 51.8ZM19.7672 58.8667C18.8161 59.803 17.5268 60.329 16.1826 60.329C14.8384 60.329 13.5491 59.803 12.598 58.8667L10.2037 61.2267C10.9888 62.0008 11.9209 62.6148 12.9468 63.0337C13.9726 63.4526 15.0722 63.6683 16.1826 63.6683C17.293 63.6683 18.3926 63.4526 19.4184 63.0337C20.4443 62.6148 21.3764 62.0008 22.1615 61.2267L19.7706 58.87L19.7672 58.8667ZM12.598 51.8C13.5491 50.8637 14.8384 50.3378 16.1826 50.3378C17.5268 50.3378 18.8161 50.8637 19.7672 51.8L22.1615 49.44C21.3764 48.666 20.4443 48.052 19.4184 47.633C18.3926 47.2141 17.293 46.9985 16.1826 46.9985C15.0722 46.9985 13.9726 47.2141 12.9468 47.633C11.9209 48.052 10.9888 48.666 10.2037 49.44L12.5946 51.7967L12.598 51.8ZM60.3479 51.8C61.3422 52.7734 61.8359 54.05 61.8359 55.3334H65.2176C65.2176 53.2034 64.3925 51.0667 62.7422 49.44L60.3513 51.7967L60.3479 51.8ZM61.8359 55.3334C61.8359 56.6167 61.3422 57.8934 60.3479 58.8667L62.7422 61.2267C63.5281 60.4534 64.1513 59.5347 64.5761 58.5234C65.0009 57.512 65.2189 56.428 65.2176 55.3334H61.8359ZM49.9999 53.6667H39.8547V57H49.9999V53.6667ZM53.1787 58.8667C52.7066 58.4035 52.3321 57.8529 52.0768 57.2465C51.8214 56.6401 51.6902 55.9899 51.6907 55.3334H48.309C48.309 57.4634 49.1341 59.6 50.7844 61.2267L53.1753 58.87L53.1787 58.8667ZM51.6907 55.3334C51.6907 54.05 52.1845 52.7734 53.1787 51.8L50.7844 49.44C49.9985 50.2134 49.3753 51.1321 48.9505 52.1434C48.5257 53.1547 48.3077 54.2388 48.309 55.3334H51.6907ZM12.598 58.8667C12.1259 58.4035 11.7514 57.8529 11.4961 57.2465C11.2407 56.6401 11.1095 55.9899 11.11 55.3334H7.72829C7.72829 57.4634 8.55343 59.6 10.2037 61.2267L12.5946 58.87L12.598 58.8667ZM11.11 55.3334C11.11 54.05 11.6038 52.7734 12.598 51.8L10.2037 49.44C9.41781 50.2134 8.79457 51.1321 8.36978 52.1434C7.94498 53.1547 7.72698 54.2388 7.72829 55.3334H11.11ZM39.8547 53.6667H22.9461V57H39.8547V53.6667ZM19.7672 51.8C20.7615 52.7734 21.2552 54.05 21.2552 55.3334H24.6369C24.6369 53.2034 23.8118 51.0667 22.1615 49.44L19.7706 51.7967L19.7672 51.8ZM21.2552 55.3334C21.2552 56.6167 20.7615 57.8934 19.7672 58.8667L22.1615 61.2267C22.9474 60.4534 23.5706 59.5347 23.9954 58.5234C24.4202 57.512 24.6382 56.428 24.6369 55.3334H21.2552ZM68.5993 48.6667C68.5993 49.9928 68.0649 51.2646 67.1136 52.2022C66.1623 53.1399 64.8721 53.6667 63.5268 53.6667V57C65.769 57 67.9194 56.1221 69.5049 54.5593C71.0903 52.9965 71.9811 50.8768 71.9811 48.6667H68.5993ZM56.7633 23.6667C59.9024 23.6667 62.913 24.8959 65.1327 27.0838C67.3523 29.2717 68.5993 32.2392 68.5993 35.3334H71.9811C71.9811 31.3551 70.3778 27.5398 67.5239 24.7268C64.67 21.9137 60.7993 20.3334 56.7633 20.3334V23.6667ZM0.964844 48.6667C0.964844 50.8768 1.85556 52.9965 3.44105 54.5593C5.02655 56.1221 7.17693 57 9.41916 57V53.6667C8.07382 53.6667 6.78359 53.1399 5.8323 52.2022C4.881 51.2646 4.34657 49.9928 4.34657 48.6667H0.964844Z" fill="#3837DA"/>
</svg>
