<svg width="72" height="64" viewBox="0 0 72 64" fill="none" xmlns="http://www.w3.org/2000/svg">
<path d="M2.51557 2.00004V0.333374C2.06712 0.333374 1.63705 0.508969 1.31995 0.82153C1.00285 1.13409 0.824707 1.55801 0.824707 2.00004H2.51557ZM39.7145 2.00004H41.4054C41.4054 1.55801 41.2273 1.13409 40.9102 0.82153C40.5931 0.508969 40.163 0.333374 39.7145 0.333374V2.00004ZM39.7145 22V20.3334C39.2661 20.3334 38.836 20.509 38.5189 20.8215C38.2018 21.1341 38.0237 21.558 38.0237 22H39.7145ZM2.51557 3.66671H39.7145V0.333374H2.51557V3.66671ZM38.0237 2.00004V55.3334H41.4054V2.00004H38.0237ZM4.20643 48.6667V2.00004H0.824707V48.6667H4.20643ZM39.7145 23.6667H56.6232V20.3334H39.7145V23.6667ZM68.4592 35.3334V48.6667H71.8409V35.3334H68.4592ZM41.4054 55.3334V22H38.0237V55.3334H41.4054ZM60.2078 58.8667C59.2567 59.803 57.9674 60.329 56.6232 60.329C55.2789 60.329 53.9897 59.803 53.0385 58.8667L50.6443 61.2267C51.4294 62.0008 52.3615 62.6148 53.3873 63.0337C54.4132 63.4526 55.5127 63.6683 56.6232 63.6683C57.7336 63.6683 58.8331 63.4526 59.859 63.0337C60.8849 62.6148 61.817 62.0008 62.6021 61.2267L60.2112 58.87L60.2078 58.8667ZM53.0385 51.8C53.9897 50.8637 55.2789 50.3378 56.6232 50.3378C57.9674 50.3378 59.2567 50.8637 60.2078 51.8L62.6021 49.44C61.817 48.666 60.8849 48.052 59.859 47.633C58.8331 47.2141 57.7336 46.9985 56.6232 46.9985C55.5127 46.9985 54.4132 47.2141 53.3873 47.633C52.3615 48.052 51.4294 48.666 50.6443 49.44L53.0352 51.7967L53.0385 51.8ZM19.6271 58.8667C18.676 59.803 17.3867 60.329 16.0425 60.329C14.6982 60.329 13.409 59.803 12.4578 58.8667L10.0636 61.2267C10.8487 62.0008 11.7808 62.6148 12.8066 63.0337C13.8325 63.4526 14.932 63.6683 16.0425 63.6683C17.1529 63.6683 18.2524 63.4526 19.2783 63.0337C20.3042 62.6148 21.2363 62.0008 22.0214 61.2267L19.6305 58.87L19.6271 58.8667ZM12.4578 51.8C13.409 50.8637 14.6982 50.3378 16.0425 50.3378C17.3867 50.3378 18.676 50.8637 19.6271 51.8L22.0214 49.44C21.2363 48.666 20.3042 48.052 19.2783 47.633C18.2524 47.2141 17.1529 46.9985 16.0425 46.9985C14.932 46.9985 13.8325 47.2141 12.8066 47.633C11.7808 48.052 10.8487 48.666 10.0636 49.44L12.4545 51.7967L12.4578 51.8ZM60.2078 51.8C61.202 52.7734 61.6958 54.05 61.6958 55.3334H65.0775C65.0775 53.2034 64.2523 51.0667 62.6021 49.44L60.2112 51.7967L60.2078 51.8ZM61.6958 55.3334C61.6958 56.6167 61.202 57.8934 60.2078 58.8667L62.6021 61.2267C63.388 60.4534 64.0112 59.5347 64.436 58.5234C64.8608 57.512 65.0788 56.428 65.0775 55.3334H61.6958ZM49.8597 53.6667H39.7145V57H49.8597V53.6667ZM53.0385 58.8667C52.5665 58.4035 52.192 57.8529 51.9366 57.2465C51.6813 56.6401 51.5501 55.9899 51.5506 55.3334H48.1689C48.1689 57.4634 48.994 59.6 50.6443 61.2267L53.0352 58.87L53.0385 58.8667ZM51.5506 55.3334C51.5506 54.05 52.0443 52.7734 53.0385 51.8L50.6443 49.44C49.8584 50.2134 49.2351 51.1321 48.8103 52.1434C48.3855 53.1547 48.1675 54.2388 48.1689 55.3334H51.5506ZM12.4578 58.8667C11.9858 58.4035 11.6113 57.8529 11.3559 57.2465C11.1006 56.6401 10.9694 55.9899 10.9699 55.3334H7.58816C7.58816 57.4634 8.4133 59.6 10.0636 61.2267L12.4545 58.87L12.4578 58.8667ZM10.9699 55.3334C10.9699 54.05 11.4636 52.7734 12.4578 51.8L10.0636 49.44C9.27767 50.2134 8.65444 51.1321 8.22964 52.1434C7.80484 53.1547 7.58684 54.2388 7.58816 55.3334H10.9699ZM39.7145 53.6667H22.8059V57H39.7145V53.6667ZM19.6271 51.8C20.6213 52.7734 21.1151 54.05 21.1151 55.3334H24.4968C24.4968 53.2034 23.6716 51.0667 22.0214 49.44L19.6305 51.7967L19.6271 51.8ZM21.1151 55.3334C21.1151 56.6167 20.6213 57.8934 19.6271 58.8667L22.0214 61.2267C22.8073 60.4534 23.4305 59.5347 23.8553 58.5234C24.2801 57.512 24.4981 56.428 24.4968 55.3334H21.1151ZM68.4592 48.6667C68.4592 49.9928 67.9248 51.2646 66.9735 52.2022C66.0222 53.1399 64.732 53.6667 63.3866 53.6667V57C65.6288 57 67.7792 56.1221 69.3647 54.5593C70.9502 52.9965 71.8409 50.8768 71.8409 48.6667H68.4592ZM56.6232 23.6667C59.7623 23.6667 62.7728 24.8959 64.9925 27.0838C67.2122 29.2717 68.4592 32.2392 68.4592 35.3334H71.8409C71.8409 31.3551 70.2376 27.5398 67.3838 24.7268C64.5299 21.9137 60.6592 20.3334 56.6232 20.3334V23.6667ZM0.824707 48.6667C0.824707 50.8768 1.71543 52.9965 3.30092 54.5593C4.88641 56.1221 7.0368 57 9.27902 57V53.6667C7.93369 53.6667 6.64345 53.1399 5.69216 52.2022C4.74086 51.2646 4.20643 49.9928 4.20643 48.6667H0.824707Z" fill="#F59818"/>
</svg>
