<svg width="65" height="64" viewBox="0 0 65 64" fill="none" xmlns="http://www.w3.org/2000/svg">
<path d="M27.4016 4.21664C28.036 3.51829 28.8126 2.95966 29.6808 2.5772C30.5491 2.19475 31.4894 1.99707 32.4404 1.99707C33.3913 1.99707 34.3316 2.19475 35.1999 2.5772C36.0681 2.95966 36.8448 3.51829 37.4791 4.21664L39.8463 6.82331C40.5229 7.56829 41.3608 8.15374 42.298 8.53629C43.2352 8.91884 44.2477 9.08871 45.2605 9.03331L48.8113 8.83997C49.761 8.78837 50.7111 8.9348 51.5996 9.26972C52.488 9.60463 53.2948 10.1205 53.9672 10.7836C54.6396 11.4467 55.1626 12.2422 55.5019 13.1181C55.8413 13.9939 55.9894 14.9305 55.9366 15.8666L55.7404 19.3633C55.6848 20.3611 55.8573 21.3584 56.2454 22.2816C56.6335 23.2048 57.2272 24.0301 57.9825 24.6966L60.627 27.03C61.3361 27.6553 61.9033 28.421 62.2916 29.2771C62.68 30.1333 62.8807 31.0605 62.8807 31.9983C62.8807 32.9361 62.68 33.8634 62.2916 34.7195C61.9033 35.5756 61.3361 36.3413 60.627 36.9666L57.9825 39.3C57.2267 39.9668 56.6328 40.7927 56.2447 41.7165C55.8566 42.6403 55.6842 43.6383 55.7404 44.6366L55.9366 48.1366C55.9889 49.0728 55.8404 50.0093 55.5006 50.885C55.1608 51.7607 54.6375 52.5559 53.9647 53.2188C53.292 53.8816 52.485 54.397 51.5964 54.7315C50.7078 55.066 49.7576 55.212 48.8079 55.16L45.2605 54.9666C44.2482 54.9117 43.2364 55.0819 42.2998 55.4644C41.3633 55.8469 40.5259 56.4321 39.8497 57.1766L37.4825 59.7833C36.8481 60.4822 36.0713 61.0413 35.2027 61.4241C34.3342 61.8069 33.3935 62.0047 32.442 62.0047C31.4906 62.0047 30.5499 61.8069 29.6814 61.4241C28.8128 61.0413 28.036 60.4822 27.4016 59.7833L25.0344 57.1766C24.3578 56.4317 23.5199 55.8462 22.5827 55.4637C21.6455 55.0811 20.6331 54.9112 19.6202 54.9666L16.0694 55.16C15.1197 55.2116 14.1696 55.0652 13.2812 54.7302C12.3927 54.3953 11.586 53.8795 10.9135 53.2163C10.2411 52.5532 9.71815 51.7578 9.37879 50.8819C9.03944 50.006 8.89133 49.0694 8.94414 48.1333L9.14028 44.6366C9.19597 43.6389 9.02338 42.6415 8.63529 41.7184C8.2472 40.7952 7.65353 39.9698 6.89819 39.3033L4.25368 36.97C3.54464 36.3447 2.97742 35.5789 2.58907 34.7228C2.20073 33.8667 2 32.9394 2 32.0016C2 31.0638 2.20073 30.1366 2.58907 29.2805C2.97742 28.4244 3.54464 27.6586 4.25368 27.0333L6.89819 24.7C7.65399 24.0331 8.24794 23.2072 8.63604 22.2834C9.02415 21.3596 9.19648 20.3616 9.14028 19.3633L8.94414 15.8633C8.89227 14.9274 9.0412 13.9913 9.3812 13.116C9.72119 12.2407 10.2446 11.4459 10.9173 10.7834C11.59 10.121 12.3968 9.60581 13.2852 9.27151C14.1735 8.93721 15.1234 8.7913 16.0728 8.84331L19.6202 9.03664C20.6325 9.09154 21.6443 8.92142 22.5809 8.53889C23.5175 8.15635 24.3548 7.57117 25.031 6.82664L27.3982 4.21997L27.4016 4.21664Z" stroke="#F59818" stroke-width="2.5"/>
<path d="M23.9861 23.6666H24.0199V23.7H23.9861V23.6666ZM40.8947 40.3333H40.9285V40.3666H40.8947V40.3333Z" stroke="#F59818" stroke-width="3.75" stroke-linejoin="round"/>
<path d="M42.5855 22L22.2952 42" stroke="#F59818" stroke-width="2.5" stroke-linecap="round" stroke-linejoin="round"/>
</svg>
