<svg width="65" height="64" viewBox="0 0 65 64" fill="none" xmlns="http://www.w3.org/2000/svg">
<path d="M27.5422 4.21664C28.1766 3.51829 28.9532 2.95966 29.8215 2.5772C30.6897 2.19475 31.63 1.99707 32.581 1.99707C33.532 1.99707 34.4723 2.19475 35.3405 2.5772C36.2087 2.95966 36.9854 3.51829 37.6198 4.21664L39.987 6.82331C40.6635 7.56829 41.5014 8.15374 42.4386 8.53629C43.3758 8.91884 44.3883 9.08871 45.4011 9.03331L48.9519 8.83997C49.9017 8.78837 50.8518 8.9348 51.7402 9.26972C52.6286 9.60463 53.4354 10.1205 54.1078 10.7836C54.7802 11.4467 55.3032 12.2422 55.6426 13.1181C55.9819 13.9939 56.13 14.9305 56.0772 15.8666L55.8811 19.3633C55.8254 20.3611 55.998 21.3584 56.3861 22.2816C56.7741 23.2048 57.3678 24.0301 58.1232 24.6966L60.7677 27.03C61.4767 27.6553 62.0439 28.421 62.4323 29.2771C62.8206 30.1333 63.0214 31.0605 63.0214 31.9983C63.0214 32.9361 62.8206 33.8634 62.4323 34.7195C62.0439 35.5756 61.4767 36.3413 60.7677 36.9666L58.1232 39.3C57.3674 39.9668 56.7734 40.7927 56.3853 41.7165C55.9972 42.6403 55.8249 43.6383 55.8811 44.6366L56.0772 48.1366C56.1296 49.0728 55.981 50.0093 55.6412 50.885C55.3015 51.7607 54.7781 52.5559 54.1054 53.2188C53.4326 53.8816 52.6256 54.397 51.737 54.7315C50.8484 55.066 49.8983 55.212 48.9485 55.16L45.4011 54.9666C44.3888 54.9117 43.377 55.0819 42.4404 55.4644C41.5039 55.8469 40.6665 56.4321 39.9903 57.1766L37.6231 59.7833C36.9887 60.4822 36.2119 61.0413 35.3434 61.4241C34.4748 61.8069 33.5341 62.0047 32.5827 62.0047C31.6313 62.0047 30.6906 61.8069 29.822 61.4241C28.9535 61.0413 28.1766 60.4822 27.5422 59.7833L25.175 57.1766C24.4985 56.4317 23.6606 55.8462 22.7234 55.4637C21.7862 55.0811 20.7737 54.9112 19.7609 54.9666L16.2101 55.16C15.2603 55.2116 14.3102 55.0652 13.4218 54.7302C12.5334 54.3953 11.7266 53.8795 11.0542 53.2163C10.3817 52.5532 9.85877 51.7578 9.51942 50.8819C9.18006 50.006 9.03195 49.0694 9.08476 48.1333L9.2809 44.6366C9.33659 43.6389 9.16401 42.6415 8.77592 41.7184C8.38783 40.7952 7.79416 39.9698 7.03882 39.3033L4.39431 36.97C3.68527 36.3447 3.11804 35.5789 2.7297 34.7228C2.34135 33.8667 2.14062 32.9394 2.14062 32.0016C2.14062 31.0638 2.34135 30.1366 2.7297 29.2805C3.11804 28.4244 3.68527 27.6586 4.39431 27.0333L7.03882 24.7C7.79462 24.0331 8.38856 23.2072 8.77667 22.2834C9.16478 21.3596 9.33711 20.3616 9.2809 19.3633L9.08476 15.8633C9.0329 14.9274 9.18183 13.9913 9.52182 13.116C9.86182 12.2407 10.3852 11.4459 11.0579 10.7834C11.7306 10.121 12.5375 9.60581 13.4258 9.27151C14.3142 8.93721 15.264 8.7913 16.2134 8.84331L19.7609 9.03664C20.7731 9.09154 21.785 8.92142 22.7215 8.53889C23.6581 8.15635 24.4954 7.57117 25.1716 6.82664L27.5388 4.21997L27.5422 4.21664Z" stroke="#3837DA" stroke-width="2.5"/>
<path d="M24.127 23.6666H24.1608V23.7H24.127V23.6666ZM41.0356 40.3333H41.0694V40.3666H41.0356V40.3333Z" stroke="#3837DA" stroke-width="3.75" stroke-linejoin="round"/>
<path d="M42.7259 22L22.4355 42" stroke="#3837DA" stroke-width="2.5" stroke-linecap="round" stroke-linejoin="round"/>
</svg>
