<svg width="81" height="60" viewBox="0 0 81 60" fill="none" xmlns="http://www.w3.org/2000/svg">
<path d="M73.3232 14.0644C73.6064 14.0644 73.878 13.9656 74.0783 13.7898C74.2786 13.614 74.3911 13.3755 74.3911 13.1269V10.0051C74.39 9.19093 74.021 8.41035 73.3652 7.83462C72.7093 7.25889 71.8201 6.935 70.8926 6.93401H65.1536L63.8444 3.54227C63.7554 3.31161 63.5677 3.1204 63.3209 3.00912C63.0741 2.89784 62.7877 2.87522 62.5223 2.94604L31.4396 11.2407C31.1824 11.3231 30.9709 11.489 30.8487 11.7041C30.7265 11.9193 30.703 12.1674 30.7829 12.3973C30.8628 12.6272 31.0401 12.8215 31.2783 12.9401C31.5165 13.0588 31.7974 13.0927 32.0633 13.035L62.1549 5.00284L65.0234 12.4369C65.1143 12.6724 65.308 12.8665 65.562 12.9765C65.8159 13.0866 66.1093 13.1036 66.3775 13.0238C66.6457 12.944 66.8668 12.7739 66.9922 12.551C67.1175 12.328 67.1369 12.0705 67.046 11.8351L65.8777 8.80706H70.8947C71.6466 8.80706 72.2574 9.34329 72.2574 10.0033V13.1269C72.2553 13.6444 72.7337 14.0644 73.3232 14.0644Z" fill="#F59818"/>
<path d="M77.6881 27.7238C77.4089 27.7238 77.1411 27.8211 76.9437 27.9944C76.7463 28.1677 76.6354 28.4028 76.6354 28.6478C76.6354 28.8929 76.7463 29.1279 76.9437 29.3012C77.1411 29.4745 77.4089 29.5719 77.6881 29.5719C78.427 29.5719 78.7407 29.8473 78.7407 30.4959V41.5845C78.7407 42.2332 78.427 42.5086 77.6881 42.5086H60.846C60.107 42.5086 59.7933 42.2332 59.7933 41.5845V32.344C59.7933 31.6953 60.107 31.42 60.846 31.42H73.4775C73.7567 31.42 74.0244 31.3226 74.2219 31.1493C74.4193 30.976 74.5302 30.741 74.5302 30.4959V19.4074C74.5302 17.7237 73.2902 16.6352 71.3723 16.6352H39.267H7.16174C4.56595 16.6352 2.95121 15.2177 2.95121 12.939C2.95121 10.6603 4.56595 9.24283 7.16174 9.24283H17.8481L11.4775 11.0872C11.3415 11.1217 11.2148 11.1798 11.1049 11.2583C10.9951 11.3367 10.9044 11.4338 10.8383 11.5437C10.7722 11.6536 10.7321 11.7741 10.7202 11.898C10.7084 12.0218 10.7252 12.1465 10.7695 12.2645C10.8139 12.3826 10.8849 12.4915 10.9783 12.5849C11.0718 12.6783 11.1857 12.7542 11.3133 12.808C11.4409 12.8618 11.5796 12.8925 11.7211 12.8982C11.8625 12.9039 12.0038 12.8844 12.1365 12.8411L50.2817 1.8024C50.4131 1.7643 50.5345 1.70386 50.6393 1.62454C50.744 1.54522 50.8299 1.44858 50.892 1.34012C50.9542 1.23166 50.9914 1.11351 51.0016 0.992427C51.0117 0.87134 50.9946 0.749683 50.9512 0.634403C50.9078 0.519123 50.839 0.412476 50.7486 0.320553C50.6583 0.228629 50.5482 0.153228 50.4246 0.0986559C50.3011 0.0440834 50.1665 0.0114078 50.0285 0.00249471C49.8906 -0.00641841 49.752 0.00860552 49.6207 0.0467087L24.147 7.42061C24.0986 7.41322 24.0544 7.39474 24.0038 7.39474H7.16174C3.38489 7.39474 0.845947 9.62354 0.845947 12.939V53.5971C0.845947 56.9126 3.38489 59.1414 7.16174 59.1414H71.3723C73.2902 59.1414 74.5302 58.0529 74.5302 56.3693V47.1288C74.5302 46.8837 74.4193 46.6487 74.2219 46.4754C74.0244 46.3021 73.7567 46.2047 73.4775 46.2047C73.1984 46.2047 72.9306 46.3021 72.7332 46.4754C72.5358 46.6487 72.4249 46.8837 72.4249 47.1288V56.3693C72.4249 57.018 72.1112 57.2933 71.3723 57.2933H7.16174C4.56595 57.2933 2.95121 55.8758 2.95121 53.5971V17.2118C4.03121 18.012 5.46068 18.4833 7.16174 18.4833H39.267H71.3723C72.1112 18.4833 72.4249 18.7587 72.4249 19.4074V29.5719H60.846C58.9281 29.5719 57.6881 30.6604 57.6881 32.344V41.5845C57.6881 43.2681 58.9281 44.3567 60.846 44.3567H77.6881C79.606 44.3567 80.8459 43.2681 80.8459 41.5845V30.4959C80.8459 28.8123 79.606 27.7238 77.6881 27.7238Z" fill="#F59818"/>
<path d="M72.2354 39.3757C73.415 39.3757 74.3713 38.5363 74.3713 37.5008C74.3713 36.4653 73.415 35.6259 72.2354 35.6259C71.0559 35.6259 70.0996 36.4653 70.0996 37.5008C70.0996 38.5363 71.0559 39.3757 72.2354 39.3757Z" fill="#F59818"/>
</svg>
