<svg width="81" height="60" viewBox="0 0 81 60" fill="none" xmlns="http://www.w3.org/2000/svg">
<path d="M73.4638 14.0644C73.747 14.0644 74.0187 13.9656 74.2189 13.7898C74.4192 13.614 74.5317 13.3755 74.5317 13.1269V10.0051C74.5306 9.19093 74.1616 8.41035 73.5058 7.83462C72.8499 7.25889 71.9607 6.935 71.0332 6.93401H65.2943L63.985 3.54227C63.896 3.31161 63.7083 3.1204 63.4615 3.00912C63.2148 2.89784 62.9284 2.87522 62.6629 2.94604L31.5803 11.2407C31.323 11.3231 31.1115 11.489 30.9893 11.7041C30.8672 11.9193 30.8436 12.1674 30.9235 12.3973C31.0035 12.6272 31.1808 12.8215 31.4189 12.9401C31.6571 13.0588 31.9381 13.0927 32.2039 13.035L62.2956 5.00284L65.164 12.4369C65.2549 12.6724 65.4486 12.8665 65.7026 12.9765C65.9565 13.0866 66.2499 13.1036 66.5181 13.0238C66.7863 12.944 67.0074 12.7739 67.1328 12.551C67.2582 12.328 67.2775 12.0705 67.1866 11.8351L66.0183 8.80706H71.0354C71.7872 8.80706 72.398 9.34329 72.398 10.0033V13.1269C72.3959 13.6444 72.8743 14.0644 73.4638 14.0644Z" fill="#3837DA"/>
<path d="M77.8284 27.7238C77.5493 27.7238 77.2815 27.8211 77.0841 27.9944C76.8867 28.1677 76.7758 28.4028 76.7758 28.6478C76.7758 28.8929 76.8867 29.1279 77.0841 29.3012C77.2815 29.4745 77.5493 29.5719 77.8284 29.5719C78.5674 29.5719 78.8811 29.8473 78.8811 30.4959V41.5845C78.8811 42.2332 78.5674 42.5086 77.8284 42.5086H60.9863C60.2474 42.5086 59.9337 42.2332 59.9337 41.5845V32.344C59.9337 31.6953 60.2474 31.42 60.9863 31.42H73.6179C73.8971 31.42 74.1648 31.3226 74.3622 31.1493C74.5596 30.976 74.6705 30.741 74.6705 30.4959V19.4074C74.6705 17.7237 73.4305 16.6352 71.5126 16.6352H39.4074H7.30212C4.70633 16.6352 3.09159 15.2177 3.09159 12.939C3.09159 10.6603 4.70633 9.24283 7.30212 9.24283H17.9884L11.6179 11.0872C11.4819 11.1217 11.3551 11.1798 11.2453 11.2583C11.1355 11.3367 11.0448 11.4338 10.9787 11.5437C10.9126 11.6536 10.8724 11.7741 10.8606 11.898C10.8488 12.0218 10.8656 12.1465 10.9099 12.2645C10.9543 12.3826 11.0253 12.4915 11.1187 12.5849C11.2122 12.6783 11.3261 12.7542 11.4537 12.808C11.5813 12.8618 11.72 12.8925 11.8614 12.8982C12.0029 12.9039 12.1442 12.8844 12.2769 12.8411L50.4221 1.8024C50.5534 1.7643 50.6749 1.70386 50.7796 1.62454C50.8844 1.54522 50.9702 1.44858 51.0324 1.34012C51.0946 1.23166 51.1318 1.11351 51.142 0.992427C51.1521 0.87134 51.135 0.749683 51.0916 0.634403C51.0482 0.519123 50.9793 0.412476 50.889 0.320553C50.7986 0.228629 50.6885 0.153228 50.565 0.0986559C50.4414 0.0440834 50.3068 0.0114078 50.1689 0.00249471C50.031 -0.00641841 49.8924 0.00860552 49.7611 0.0467087L24.2874 7.42061C24.239 7.41322 24.1947 7.39474 24.1442 7.39474H7.30212C3.52528 7.39474 0.986328 9.62354 0.986328 12.939V53.5971C0.986328 56.9126 3.52528 59.1414 7.30212 59.1414H71.5126C73.4305 59.1414 74.6705 58.0529 74.6705 56.3693V47.1288C74.6705 46.8837 74.5596 46.6487 74.3622 46.4754C74.1648 46.3021 73.8971 46.2047 73.6179 46.2047C73.3387 46.2047 73.071 46.3021 72.8736 46.4754C72.6762 46.6487 72.5653 46.8837 72.5653 47.1288V56.3693C72.5653 57.018 72.2516 57.2933 71.5126 57.2933H7.30212C4.70633 57.2933 3.09159 55.8758 3.09159 53.5971V17.2118C4.17159 18.012 5.60107 18.4833 7.30212 18.4833H39.4074H71.5126C72.2516 18.4833 72.5653 18.7587 72.5653 19.4074V29.5719H60.9863C59.0684 29.5719 57.8284 30.6604 57.8284 32.344V41.5845C57.8284 43.2681 59.0684 44.3567 60.9863 44.3567H77.8284C79.7463 44.3567 80.9863 43.2681 80.9863 41.5845V30.4959C80.9863 28.8123 79.7463 27.7238 77.8284 27.7238Z" fill="#3837DA"/>
<path d="M72.3761 39.3757C73.5556 39.3757 74.5119 38.5363 74.5119 37.5008C74.5119 36.4653 73.5556 35.6259 72.3761 35.6259C71.1965 35.6259 70.2402 36.4653 70.2402 37.5008C70.2402 38.5363 71.1965 39.3757 72.3761 39.3757Z" fill="#3837DA"/>
</svg>
