<svg width="57" height="57" viewBox="0 0 57 57" fill="none" xmlns="http://www.w3.org/2000/svg">
<path d="M52.3471 56.1667C53.5243 56.1667 54.6532 55.7057 55.4856 54.8853C56.318 54.0648 56.7856 52.952 56.7856 51.7917V41.5833C56.7856 40.423 56.318 39.3102 55.4856 38.4897C54.6532 37.6693 53.5243 37.2083 52.3471 37.2083C48.8851 37.2083 45.4822 36.6833 42.2273 35.6042C41.4491 35.362 40.6185 35.3346 39.8256 35.5249C39.0327 35.7151 38.3078 36.1158 37.7296 36.6833L33.4686 40.8833C26.1075 36.9234 20.0574 30.9599 16.0401 23.7042L20.2715 19.5333C21.4846 18.3958 21.9285 16.7042 21.3959 15.0708C20.3306 11.8917 19.798 8.5375 19.798 5.125C19.798 3.96468 19.3304 2.85188 18.498 2.03141C17.6656 1.21094 16.5367 0.75 15.3595 0.75H5.00297C3.8258 0.75 2.69685 1.21094 1.86446 2.03141C1.03208 2.85188 0.564453 3.96468 0.564453 5.125C0.564453 33.2708 23.7927 56.1667 52.3471 56.1667ZM5.00297 3.66667H15.3595C15.7519 3.66667 16.1282 3.82031 16.4057 4.0938C16.6831 4.36729 16.839 4.73823 16.839 5.125C16.839 8.85833 17.4308 12.5042 18.5848 15.975C18.7328 16.3833 18.7032 16.9667 18.2297 17.4333L12.4005 23.15C17.2829 32.5708 24.4437 39.6292 34.0308 44.5L39.8009 38.7542C40.2152 38.3458 40.7774 38.2292 41.31 38.375C44.8608 39.5417 48.5596 40.125 52.3471 40.125C52.7395 40.125 53.1158 40.2786 53.3933 40.5521C53.6707 40.8256 53.8266 41.1966 53.8266 41.5833V51.7917C53.8266 52.1784 53.6707 52.5494 53.3933 52.8229C53.1158 53.0964 52.7395 53.25 52.3471 53.25C25.4201 53.25 3.52346 31.6667 3.52346 5.125C3.52346 4.73823 3.67934 4.36729 3.9568 4.0938C4.23426 3.82031 4.61058 3.66667 5.00297 3.66667Z" fill="#3837DA"/>
</svg>
