<svg width="57" height="57" viewBox="0 0 57 57" fill="none" xmlns="http://www.w3.org/2000/svg">
<path d="M52.2067 56.1667C53.3839 56.1667 54.5129 55.7057 55.3452 54.8853C56.1776 54.0648 56.6452 52.952 56.6452 51.7917V41.5833C56.6452 40.423 56.1776 39.3102 55.3452 38.4897C54.5129 37.6693 53.3839 37.2083 52.2067 37.2083C48.7447 37.2083 45.3418 36.6833 42.0869 35.6042C41.3087 35.362 40.4781 35.3346 39.6852 35.5249C38.8924 35.7151 38.1675 36.1158 37.5892 36.6833L33.3283 40.8833C25.9671 36.9234 19.9171 30.9599 15.8997 23.7042L20.1311 19.5333C21.3443 18.3958 21.7881 16.7042 21.2555 15.0708C20.1903 11.8917 19.6576 8.5375 19.6576 5.125C19.6576 3.96468 19.19 2.85188 18.3576 2.03141C17.5252 1.21094 16.3963 0.75 15.2191 0.75H4.86259C3.68542 0.75 2.55647 1.21094 1.72408 2.03141C0.8917 2.85188 0.424072 3.96468 0.424072 5.125C0.424072 33.2708 23.6523 56.1667 52.2067 56.1667ZM4.86259 3.66667H15.2191C15.6115 3.66667 15.9878 3.82031 16.2653 4.0938C16.5427 4.36729 16.6986 4.73823 16.6986 5.125C16.6986 8.85833 17.2904 12.5042 18.4444 15.975C18.5924 16.3833 18.5628 16.9667 18.0894 17.4333L12.2601 23.15C17.1425 32.5708 24.3033 39.6292 33.8905 44.5L39.6605 38.7542C40.0748 38.3458 40.637 38.2292 41.1696 38.375C44.7204 39.5417 48.4192 40.125 52.2067 40.125C52.5991 40.125 52.9754 40.2786 53.2529 40.5521C53.5304 40.8256 53.6862 41.1966 53.6862 41.5833V51.7917C53.6862 52.1784 53.5304 52.5494 53.2529 52.8229C52.9754 53.0964 52.5991 53.25 52.2067 53.25C25.2797 53.25 3.38308 31.6667 3.38308 5.125C3.38308 4.73823 3.53896 4.36729 3.81642 4.0938C4.09388 3.82031 4.4702 3.66667 4.86259 3.66667Z" fill="#F59818"/>
</svg>
